<?xml version="1.0" standalone="no"?>
<!DOCTYPE svg PUBLIC "-//W3C//DTD SVG 20010904//EN"
 "http://www.w3.org/TR/2001/REC-SVG-20010904/DTD/svg10.dtd">
<svg version="1.0" xmlns="http://www.w3.org/2000/svg"
 width="1280.000000pt" height="904.000000pt" viewBox="0 0 1280.000000 904.000000"
 preserveAspectRatio="xMidYMid meet">
<metadata>
Created by potrace 1.15, written by Peter Selinger 2001-2017
</metadata>
<g transform="translate(0.000000,904.000000) scale(0.100000,-0.100000)"
fill="#000000" stroke="none">
<path d="M10410 7470 c-50 -8 -110 -28 -125 -42 -7 -6 -4 -13 8 -19 21 -12 22
-29 1 -29 -10 0 -14 -6 -10 -15 3 -9 -3 -19 -15 -25 -14 -8 -20 -8 -23 2 -3 7
-8 25 -13 39 l-8 27 -100 -39 c-55 -21 -106 -41 -114 -44 -20 -8 8 -38 30 -32
10 3 25 -3 33 -12 15 -16 13 -20 -21 -53 -21 -19 -51 -49 -67 -67 -28 -32 -45
-29 -46 6 0 7 -8 22 -17 33 -10 11 -19 25 -19 30 -1 6 -2 14 -3 19 -3 21 -39
20 -103 -5 -52 -21 -68 -32 -68 -47 0 -12 -5 -17 -14 -14 -16 6 -36 -11 -36
-30 0 -10 5 -11 19 -3 26 13 31 13 31 -5 0 -8 5 -15 10 -15 6 0 8 10 5 23 -6
21 -3 24 23 24 25 0 31 -6 48 -49 10 -26 24 -48 31 -48 18 0 40 -43 24 -48 -6
-2 -11 -10 -11 -18 0 -8 -4 -14 -10 -14 -14 0 -12 -22 4 -43 13 -16 22 -14
145 34 72 28 131 56 131 61 0 5 -9 6 -20 3 -26 -8 -26 11 -1 25 31 16 64 13
57 -6 -5 -13 -2 -15 16 -9 13 3 56 9 96 12 59 5 70 8 61 19 -6 8 -14 12 -18 9
-4 -2 -22 5 -40 16 -30 18 -32 24 -28 58 5 48 13 61 38 61 23 0 24 -13 3 -34
-8 -9 -13 -17 -10 -17 32 -7 56 -21 51 -29 -6 -10 24 -35 32 -26 4 4 1 11 -7
16 -20 13 -8 12 24 0 32 -12 33 -22 4 -35 -13 -6 -24 -18 -26 -29 -3 -13 0
-16 10 -10 7 5 21 7 30 6 13 -2 16 1 12 12 -15 38 35 5 59 -39 15 -28 16 -28
18 -7 1 12 2 26 3 32 2 18 42 38 94 48 29 5 52 5 52 1 0 -5 6 -9 14 -9 23 0
-77 -97 -117 -114 l-37 -15 21 -53 c12 -29 23 -59 26 -65 3 -7 15 -13 27 -13
34 0 66 -12 60 -21 -8 -13 -48 -11 -62 3 -8 8 -12 8 -12 1 0 -14 25 -34 33
-26 4 3 7 1 7 -5 0 -6 -4 -14 -10 -17 -13 -8 -13 -18 4 -40 12 -16 16 -17 30
-6 19 16 41 3 49 -29 5 -20 -5 -25 -45 -21 -16 2 -16 -1 1 -41 10 -24 33 -82
51 -129 29 -75 36 -86 54 -82 18 4 19 3 4 -6 -15 -10 -15 -15 0 -61 9 -27 21
-50 27 -50 6 0 22 -12 36 -27 13 -15 16 -22 7 -15 -15 12 -16 10 -13 -20 2
-18 6 -42 8 -53 7 -31 127 -339 135 -347 4 -4 57 -9 117 -12 61 -2 111 -5 113
-5 1 -1 2 -9 2 -18 0 -19 -54 -49 -105 -59 -24 -4 -35 0 -54 20 -27 29 -51 34
-51 11 0 -8 7 -15 16 -15 12 0 14 -4 7 -12 -7 -9 -5 -25 6 -52 15 -34 18 -36
30 -22 17 20 45 21 61 1 7 -8 17 -12 23 -8 6 3 7 1 3 -5 -4 -7 -14 -12 -22
-12 -8 0 -14 -7 -14 -15 0 -8 6 -12 14 -9 7 3 16 -2 19 -10 4 -9 11 -16 17
-16 8 0 7 6 0 20 -22 41 16 55 47 17 21 -26 64 -47 98 -47 34 0 41 -18 10 -26
-14 -3 -31 -18 -38 -33 -10 -21 -20 -27 -53 -29 -35 -3 -46 2 -70 27 -46 49
-78 36 -50 -21 9 -17 16 -37 16 -44 0 -7 10 -18 21 -25 12 -6 18 -14 13 -18
-5 -3 -10 -33 -12 -65 -5 -99 -45 -165 -137 -224 -22 -15 -44 -26 -50 -27 -5
0 -10 -7 -10 -15 0 -22 -22 -32 -42 -19 -15 9 -37 4 -113 -26 -101 -39 -127
-54 -95 -56 12 0 15 -3 7 -6 -7 -3 -18 0 -25 5 -8 7 -27 4 -62 -12 -28 -12
-72 -30 -100 -40 -144 -51 -164 -59 -158 -69 3 -6 1 -7 -5 -3 -6 4 -59 -12
-116 -34 -86 -34 -104 -44 -99 -58 6 -15 5 -15 -10 -3 -23 19 -78 -3 -70 -27
4 -13 3 -14 -5 -3 -8 11 -18 11 -61 -4 -31 -10 -49 -21 -44 -28 4 -6 0 -8 -10
-4 -13 5 -241 -73 -255 -88 -5 -5 21 -48 37 -61 8 -6 15 -22 17 -36 2 -24 1
-25 -27 -15 -16 6 -32 21 -35 32 -4 11 -11 23 -16 26 -6 4 -6 14 1 28 13 24
14 24 -91 -17 -38 -15 -68 -33 -68 -39 0 -16 6 -16 31 -3 26 14 24 6 -6 -25
-14 -14 -22 -25 -18 -25 4 0 0 -7 -10 -14 -10 -8 -17 -16 -15 -18 2 -2 -15
-22 -36 -46 -40 -43 -65 -52 -88 -29 -7 7 -21 16 -30 19 -23 9 -12 46 24 81
36 33 34 33 -39 3 -32 -13 -128 -51 -213 -84 -139 -54 -155 -62 -152 -82 3
-15 -3 -23 -18 -27 -23 -6 -22 -28 1 -28 17 0 49 -28 49 -43 0 -13 -27 -23
-45 -16 -8 4 -22 1 -30 -6 -11 -9 -15 -9 -15 -1 0 7 -4 10 -9 7 -14 -9 -33 21
-37 56 -2 17 -5 33 -7 34 -2 2 -28 -6 -59 -18 -43 -15 -55 -24 -51 -37 4 -13
3 -13 -5 -2 -8 11 -18 11 -58 -4 -63 -23 -75 -34 -47 -41 14 -4 20 -11 16 -21
-6 -16 12 -33 35 -33 9 0 11 7 7 20 -3 11 -2 20 4 20 5 0 16 3 25 6 12 5 16 0
16 -17 0 -21 1 -22 13 -5 13 18 15 18 41 1 50 -33 54 -83 8 -105 -20 -9 -23
-14 -12 -18 8 -3 20 -12 26 -20 8 -11 13 -12 18 -4 10 16 24 15 28 -2 2 -11
27 -4 105 27 97 38 101 41 88 60 -12 17 -12 22 3 36 19 19 101 22 120 4 9 -9
20 -9 40 -2 62 23 80 34 75 45 -6 15 36 94 51 95 6 1 15 1 19 0 5 -1 6 3 3 8
-4 5 -2 12 4 16 6 4 8 10 5 15 -3 4 4 10 15 13 11 3 20 1 20 -4 0 -5 -6 -9
-12 -10 -7 0 1 -7 17 -14 17 -7 39 -23 49 -34 11 -12 24 -21 29 -21 11 0 291
106 318 121 20 10 30 76 14 83 -7 2 -10 17 -7 35 3 23 13 35 37 47 34 16 50
38 39 55 -10 17 13 9 30 -10 10 -11 14 -25 10 -36 -5 -11 -3 -16 2 -12 6 3 16
2 24 -3 12 -7 11 -10 -4 -16 -13 -5 -14 -9 -5 -15 10 -6 10 -11 1 -22 -11 -12
-7 -16 25 -20 21 -2 43 0 48 5 6 6 3 7 -9 2 -17 -7 -17 -5 -2 22 22 42 42 64
54 64 6 0 9 -6 6 -13 -2 -7 5 -22 16 -32 20 -18 22 -18 73 0 29 10 57 21 62
25 6 4 25 11 42 15 21 4 37 16 46 33 8 18 20 27 37 27 18 1 24 6 22 18 -2 10
3 17 12 17 8 0 21 9 28 19 8 11 23 18 34 17 10 -2 24 1 31 6 19 15 109 15 105
-1 -2 -9 4 -10 20 -5 51 16 68 24 68 34 0 6 5 8 12 4 7 -4 8 -3 4 4 -4 6 -1
22 6 34 7 13 11 28 10 34 -4 18 31 11 48 -9 14 -17 16 -17 32 3 13 15 14 20 4
20 -9 0 -12 8 -8 25 3 18 0 25 -11 25 -9 0 -19 -4 -22 -10 -3 -6 -11 -10 -17
-10 -17 0 20 37 43 43 10 3 22 1 25 -4 3 -5 1 -9 -5 -9 -7 0 -7 -8 1 -25 6
-14 17 -25 24 -25 7 0 14 -6 17 -12 3 -7 5 -4 4 8 -1 12 -7 21 -15 20 -8 -1
-17 5 -19 11 -3 10 3 10 25 2 24 -8 28 -14 24 -34 -3 -18 0 -25 11 -25 21 0
67 21 63 29 -2 3 10 7 27 8 18 2 33 7 35 13 2 6 7 8 12 5 4 -2 88 27 186 65
238 94 225 87 218 105 -3 8 -1 15 6 15 6 0 8 -4 5 -10 -3 -5 -2 -10 4 -10 5 0
28 21 50 46 39 45 63 109 45 123 -13 9 -17 34 -4 26 15 -9 12 16 -5 49 -8 15
-15 35 -15 43 0 7 -7 13 -16 11 -10 -2 -19 3 -22 11 -3 10 0 12 11 8 13 -5 14
-2 7 16 -5 12 -68 175 -140 362 -72 187 -143 371 -158 409 -22 59 -27 66 -35
48 -7 -16 -5 -25 8 -38 17 -17 17 -18 -1 -24 -12 -5 -14 -9 -6 -14 16 -10 4
-29 -14 -22 -16 6 -28 -9 -19 -24 5 -8 11 -7 21 1 16 13 19 -2 4 -17 -12 -12
-70 -6 -70 7 0 5 9 18 19 28 26 26 39 101 17 101 -8 0 -19 7 -23 15 -7 13 -11
12 -26 -5 -14 -17 -14 -20 -2 -20 21 0 19 -17 -5 -30 -19 -10 -45 -2 -76 25
-63 55 -84 78 -84 91 0 13 5 12 28 -5 23 -16 35 -18 65 -12 41 10 52 4 35 -16
-8 -10 -8 -17 0 -25 9 -9 16 -7 29 8 10 10 18 25 19 32 1 6 2 17 3 23 0 7 13
9 31 7 17 -3 30 -3 30 -2 0 5 -57 151 -71 183 -10 22 -19 29 -31 25 -16 -5
-23 5 -19 29 2 11 -27 9 -34 -3 -3 -5 -15 -10 -26 -10 -10 0 -19 5 -19 10 0 6
-9 10 -20 10 -11 0 -20 -4 -20 -10 0 -19 -17 -10 -28 14 -15 34 -5 63 29 78
33 14 44 35 29 52 -6 9 -4 20 6 35 13 18 18 20 31 10 13 -11 13 -9 1 21 -12
28 -22 36 -54 44 -21 5 -46 17 -54 26 -11 12 -22 15 -42 9 -16 -4 -28 -3 -28
2 0 5 13 12 30 15 16 4 29 9 28 13 -3 28 6 49 27 61 23 14 24 17 10 43 -14 27
-15 30 -15 43 0 4 -7 1 -15 -6 -9 -8 -15 -8 -15 -2 0 6 5 12 12 14 15 5 2 58
-15 58 -6 0 -25 -11 -42 -25 -23 -18 -26 -24 -13 -25 10 0 22 -9 28 -20 12
-22 1 -27 -19 -7 -8 7 -11 7 -8 1 13 -23 -39 -49 -75 -38 -14 4 -15 8 -3 31 7
14 11 31 9 38 -3 6 2 18 10 25 9 7 14 16 11 20 -3 4 2 14 11 21 12 10 25 10
55 2 21 -6 39 -10 39 -9 0 1 -13 35 -29 76 -116 300 -121 309 -179 339 -48 23
-86 29 -142 21z m230 -181 c0 -5 -4 -9 -10 -9 -5 0 -10 7 -10 16 0 8 5 12 10
9 6 -3 10 -10 10 -16z m90 -581 c10 -3 8 -6 -7 -10 -15 -4 -23 0 -26 14 -4 14
-2 16 6 10 7 -5 19 -11 27 -14z m50 -129 c0 -6 -4 -7 -10 -4 -5 3 -10 11 -10
16 0 6 5 7 10 4 6 -3 10 -11 10 -16z m-85 -9 c3 -5 1 -10 -4 -10 -6 0 -11 5
-11 10 0 6 2 10 4 10 3 0 8 -4 11 -10z m135 -114 c0 -3 -4 -8 -10 -11 -5 -3
-10 -1 -10 4 0 6 5 11 10 11 6 0 10 -2 10 -4z m134 -56 c11 8 13 1 9 -37 -2
-27 -10 -53 -18 -59 -18 -14 -20 -28 -2 -18 8 5 7 2 -2 -9 -10 -13 -22 -16
-47 -11 -22 4 -41 1 -52 -7 -14 -11 -15 -11 -5 1 10 11 9 18 -5 34 -9 11 -11
16 -4 12 15 -9 16 10 1 20 -6 3 -15 1 -19 -6 -5 -8 -9 -7 -13 4 -4 9 -1 16 5
16 7 0 6 5 -2 15 -7 8 -21 15 -31 15 -11 0 -19 5 -19 11 0 5 8 9 18 8 37 -5
162 13 163 25 1 6 3 3 6 -7 3 -13 8 -15 17 -7z m26 -105 c0 -8 -4 -15 -10 -15
-5 0 -10 7 -10 15 0 8 5 15 10 15 6 0 10 -7 10 -15z m143 -314 c-13 -11 -23
-27 -23 -38 -1 -22 -23 -53 -38 -53 -13 0 -32 32 -32 54 0 8 19 24 43 35 56
26 79 26 50 2z m156 -514 c9 0 6 -7 -9 -19 -24 -20 -40 -23 -40 -9 0 5 -3 17
-7 26 -5 14 -2 16 18 10 13 -5 30 -8 38 -8z m105 -183 c3 -8 2 -12 -4 -9 -6 3
-10 10 -10 16 0 14 7 11 14 -7z m-34 -9 c0 -7 -30 -13 -34 -7 -3 4 4 9 15 9
10 1 19 0 19 -2z m-90 -25 c9 -16 8 -18 -5 -14 -8 4 -15 12 -15 20 0 20 7 17
20 -6z m-40 -14 c0 -3 -4 -8 -10 -11 -5 -3 -10 -1 -10 4 0 6 5 11 10 11 6 0
10 -2 10 -4z m56 -42 c-9 -8 -16 -20 -16 -26 0 -6 -3 -9 -6 -5 -10 10 7 47 22
47 13 0 13 -2 0 -16z m154 -34 c0 -5 -8 -10 -17 -10 -15 0 -16 2 -3 10 19 12
20 12 20 0z m-460 -50 c0 -5 -3 -10 -7 -10 -5 0 -19 -3 -33 -6 l-25 -5 25 15
c30 18 40 20 40 6z m130 -10 c0 -5 -4 -10 -10 -10 -5 0 -10 5 -10 10 0 6 5 10
10 10 6 0 10 -4 10 -10z m167 -12 c-3 -8 -6 -5 -6 6 -1 11 2 17 5 13 3 -3 4
-12 1 -19z m43 18 c0 -3 -4 -8 -10 -11 -5 -3 -10 -1 -10 4 0 6 5 11 10 11 6 0
10 -2 10 -4z m-130 -28 c0 -5 -9 -4 -20 2 -11 6 -20 12 -20 14 0 2 9 2 20 -1
11 -3 20 -9 20 -15z m-383 -23 c9 -24 -1 -27 -20 -5 -14 17 -15 20 -2 20 9 0
18 -7 22 -15z m-82 -15 c-3 -5 -14 -10 -23 -9 -14 0 -13 2 3 9 27 11 27 11 20
0z m225 -24 c0 -3 -4 -8 -10 -11 -5 -3 -10 -1 -10 4 0 6 5 11 10 11 6 0 10 -2
10 -4z m164 -30 c10 -3 17 -8 15 -11 -10 -10 -75 21 -71 33 3 11 7 10 21 -1 9
-8 25 -17 35 -21z m110 5 c-2 -3 -12 3 -22 13 -16 17 -16 18 5 5 12 -7 20 -15
17 -18z m-644 -11 c0 -11 -4 -20 -9 -20 -5 0 -7 9 -4 20 3 11 7 20 9 20 2 0 4
-9 4 -20z m378 -21 c-3 -8 -7 -3 -11 10 -4 17 -3 21 5 13 5 -5 8 -16 6 -23z
m47 1 c-3 -5 -12 -10 -18 -10 -7 0 -6 4 3 10 19 12 23 12 15 0z m-415 -30 c0
-5 -2 -10 -4 -10 -3 0 -8 5 -11 10 -3 6 -1 10 4 10 6 0 11 -4 11 -10z m180
-10 c-19 -12 -30 -12 -30 -1 0 10 31 20 40 14 2 -2 -2 -8 -10 -13z m280 5 c-7
-9 -15 -13 -17 -11 -7 7 7 26 19 26 6 0 6 -6 -2 -15z m-570 -5 c0 -5 -7 -10
-16 -10 -8 0 -12 5 -9 10 3 6 10 10 16 10 5 0 9 -4 9 -10z m360 -4 c0 -7 -7
-19 -15 -26 -13 -11 -14 -10 -9 5 4 10 1 21 -7 26 -11 6 -8 9 9 9 12 0 22 -6
22 -14z m-440 -46 c0 -6 -9 -2 -20 7 -11 10 -20 19 -20 21 0 1 9 -2 20 -8 11
-6 20 -15 20 -20z m490 6 c0 -2 -7 -7 -16 -10 -8 -3 -12 -2 -9 4 6 10 25 14
25 6z m-300 -46 c0 -5 -7 -10 -16 -10 -8 0 -12 5 -9 10 3 6 10 10 16 10 5 0 9
-4 9 -10z m-16 -35 c-4 -8 -8 -15 -10 -15 -2 0 -4 7 -4 15 0 8 4 15 10 15 5 0
7 -7 4 -15z m-374 -5 c13 -9 12 -13 -7 -29 -13 -11 -23 -24 -23 -30 0 -9 -31
-31 -44 -31 -3 0 -3 13 -1 30 2 16 -1 32 -6 35 -5 4 -9 11 -9 16 0 6 4 8 9 5
5 -4 20 -2 33 3 30 12 30 12 48 1z m-120 -4 c0 -3 -4 -8 -10 -11 -5 -3 -10 -1
-10 4 0 6 5 11 10 11 6 0 10 -2 10 -4z m247 -18 c-3 -8 -6 -5 -6 6 -1 11 2 17
5 13 3 -3 4 -12 1 -19z m126 15 c-7 -2 -19 -2 -25 0 -7 3 -2 5 12 5 14 0 19
-2 13 -5z m0 -30 c-7 -2 -19 -2 -25 0 -7 3 -2 5 12 5 14 0 19 -2 13 -5z m-610
-90 c-7 -3 -13 -12 -13 -21 0 -15 -2 -15 -10 -2 -7 11 -5 19 7 27 9 7 19 10
22 7 3 -4 0 -9 -6 -11z m121 -1 c3 -5 -1 -9 -9 -9 -8 0 -15 4 -15 9 0 4 4 8 9
8 6 0 12 -4 15 -8z m-307 -182 c0 -28 -3 -52 -7 -55 -4 -2 -5 7 -2 20 3 17 -1
27 -12 31 -9 3 -16 10 -16 16 0 5 4 7 9 3 5 -3 12 4 16 15 9 30 11 25 12 -30z
m-67 -25 c7 -9 8 -15 2 -15 -5 0 -12 7 -16 15 -3 8 -4 15 -2 15 2 0 9 -7 16
-15z m-625 -115 c-3 -6 4 -14 17 -19 23 -9 23 -9 -5 -16 -15 -4 -30 -5 -33 -2
-9 8 6 47 17 47 6 0 7 -5 4 -10z m485 -4 c0 -3 -4 -8 -10 -11 -5 -3 -10 -1
-10 4 0 6 5 11 10 11 6 0 10 -2 10 -4z"/>
<path d="M9590 7163 c-19 -8 -95 -37 -168 -65 -126 -48 -171 -77 -172 -112 -1
-18 -37 -56 -54 -56 -18 0 -48 -39 -39 -53 3 -5 -3 -7 -13 -5 -11 2 -18 10
-16 18 3 11 0 11 -14 0 -14 -12 -18 -12 -30 5 -8 10 -14 22 -14 27 0 14 -35 9
-60 -9 -13 -10 -38 -17 -55 -18 -21 0 -31 -5 -33 -19 -3 -14 0 -17 13 -13 10
4 14 3 10 -4 -4 -5 -2 -16 4 -22 19 -24 2 -52 -40 -65 -57 -18 -102 9 -104 63
0 12 -6 19 -15 17 -8 -2 -234 -88 -502 -192 -387 -149 -492 -194 -511 -216
-17 -19 -33 -27 -55 -27 -18 0 -32 -4 -32 -9 0 -4 -7 -8 -15 -8 -8 0 -15 4
-15 9 0 8 -157 -45 -170 -57 -3 -3 1 -7 8 -9 20 -7 14 -25 -6 -18 -37 11 -167
-32 -537 -180 -33 -13 -108 -42 -167 -65 -60 -23 -108 -46 -108 -52 0 -5 -6
-8 -14 -5 -17 7 -196 -60 -196 -73 0 -4 6 -10 14 -13 8 -3 26 -30 40 -59 14
-29 26 -45 26 -35 0 9 7 17 16 17 10 0 14 -6 10 -15 -3 -8 -1 -15 4 -15 6 0
10 -7 10 -16 0 -9 -5 -13 -12 -10 -7 3 -21 9 -30 12 -10 4 -18 11 -18 16 0 6
-8 7 -17 3 -10 -4 -30 -7 -44 -6 -29 1 -55 -22 -44 -39 3 -5 2 -10 -3 -10 -5
0 -12 9 -15 20 -3 13 -14 20 -30 20 -29 0 -40 13 -45 50 -4 33 -8 35 -35 22
-12 -6 -33 -14 -47 -18 -24 -7 -24 -7 -5 -16 17 -7 16 -8 -5 -3 -15 2 -58 -8
-105 -27 -44 -17 -118 -45 -165 -63 -47 -18 -184 -71 -305 -118 -121 -46 -282
-108 -357 -137 -111 -43 -138 -57 -138 -72 0 -23 -18 -43 -48 -52 -12 -4 -22
-16 -22 -26 0 -10 -5 -22 -11 -26 -14 -8 -28 13 -23 35 3 9 0 22 -4 29 -9 13
-33 6 -272 -88 -58 -23 -142 -55 -187 -71 -82 -30 -82 -31 -76 -61 5 -24 3
-30 -8 -26 -8 3 -13 15 -12 27 3 24 -3 26 -32 8 -23 -14 -29 -31 -21 -64 4
-15 11 -20 21 -17 8 4 15 1 15 -7 0 -7 3 -10 6 -7 3 4 1 15 -5 27 -12 22 -2
35 14 17 11 -13 13 -41 3 -51 -4 -4 -4 -13 -1 -21 3 -9 -2 -14 -16 -14 -18 0
-20 -4 -15 -24 3 -13 1 -27 -5 -30 -6 -4 -11 -4 -11 1 0 4 -14 9 -32 10 -17 1
-39 12 -50 23 -10 11 -27 20 -36 20 -10 0 -29 13 -44 30 l-26 30 -46 -16 c-50
-17 -59 -25 -23 -21 18 2 23 -4 25 -30 3 -27 9 -35 35 -43 30 -9 30 -9 -8 -4
-48 7 -45 7 -72 5 -16 -1 -23 -7 -23 -22 0 -24 -26 -48 -53 -49 -14 0 -16 4
-9 18 5 9 8 22 5 28 -2 6 7 15 19 21 l22 10 -26 17 c-25 16 -29 16 -149 -31
-108 -42 -124 -51 -121 -70 2 -14 -4 -22 -20 -27 -35 -9 -41 -7 -34 9 3 8 0
15 -6 15 -10 0 -245 -88 -333 -125 -16 -7 -61 -25 -100 -40 -38 -14 -74 -32
-80 -38 -5 -7 -23 -13 -38 -15 -49 -5 -382 -138 -379 -151 2 -8 -4 -10 -17 -6
-11 3 -42 -3 -68 -14 -26 -10 -104 -41 -173 -67 -69 -26 -129 -50 -135 -53 -5
-4 -36 -15 -67 -25 -32 -11 -55 -23 -52 -27 3 -5 -3 -6 -12 -2 -12 4 -15 3
-10 -5 5 -8 2 -10 -8 -6 -9 3 -34 -3 -56 -15 -22 -12 -46 -21 -53 -21 -20 0
-197 -73 -197 -81 0 -5 -8 -6 -18 -2 -15 5 -14 4 2 -9 18 -14 18 -15 -4 -31
-25 -18 -25 -19 4 -34 18 -10 18 -11 -7 -28 -15 -9 -38 -18 -52 -19 -14 0 -25
-4 -25 -8 0 -5 -7 -8 -15 -8 -10 0 -15 -10 -15 -30 0 -16 5 -30 11 -30 5 0 8
3 6 7 -3 5 6 9 19 9 l24 2 -26 -20 c-14 -11 -28 -18 -31 -15 -3 4 -21 -10 -40
-30 -27 -27 -32 -37 -22 -44 19 -12 35 -5 31 15 -2 10 4 16 14 16 10 0 14 -3
11 -7 -4 -3 -1 -13 6 -21 7 -10 8 -13 1 -9 -11 6 -43 -21 -36 -30 2 -3 0 -8
-4 -11 -4 -4 -5 -2 -1 3 7 14 -50 47 -59 34 -3 -6 -12 -8 -19 -5 -15 5 -38
-17 -28 -27 3 -4 19 -7 35 -7 15 0 28 -4 28 -10 0 -5 5 -10 11 -10 6 0 8 7 4
18 -5 14 -4 15 7 4 19 -19 -2 -45 -42 -53 -18 -4 -36 -13 -41 -21 -6 -9 -9 -9
-9 -1 0 9 -7 10 -22 4 -13 -5 -22 -14 -20 -20 3 -16 -12 -13 -34 7 -21 18 -54
25 -54 11 0 -5 -12 -9 -27 -9 -18 -1 -35 -10 -47 -26 -18 -26 -18 -26 2 -20
11 4 23 2 27 -3 9 -15 -35 -23 -70 -12 -16 4 -29 14 -27 21 1 7 -5 24 -14 38
-11 16 -18 51 -20 91 -4 87 -16 95 -53 35 -42 -66 -41 -113 5 -236 29 -75 40
-95 53 -91 13 4 13 3 2 -5 -8 -6 -11 -18 -6 -31 7 -23 34 -29 36 -8 1 6 4 1 8
-13 5 -15 3 -31 -4 -40 -16 -20 -8 -40 16 -40 10 0 19 -7 19 -15 0 -8 -5 -15
-11 -15 -12 0 -3 -37 14 -58 6 -7 12 -25 13 -39 2 -14 5 -28 9 -31 9 -9 60 12
60 25 0 6 4 15 9 20 5 4 7 3 3 -3 -4 -7 5 -11 23 -11 17 0 30 4 30 9 0 4 8 8
18 8 14 -1 13 -4 -7 -21 -14 -11 -25 -30 -26 -42 -2 -16 -8 -21 -25 -19 -16 1
-21 -2 -16 -13 3 -8 0 -14 -7 -12 -16 3 -13 -58 7 -115 29 -84 47 -119 57
-112 8 4 9 -1 4 -16 -5 -16 -4 -20 5 -15 9 6 10 1 5 -16 -7 -21 -6 -22 8 -10
9 7 14 17 11 22 -3 5 1 7 8 5 7 -3 25 -7 40 -10 23 -5 26 -4 21 11 -6 15 -4
16 9 5 9 -7 18 -9 21 -5 3 4 31 9 63 11 60 3 70 -5 18 -14 -16 -3 -36 -12 -44
-21 -10 -11 -11 -13 -2 -8 11 6 12 3 3 -13 -8 -15 -8 -22 2 -25 6 -3 2 -6 -11
-6 -13 -1 -20 3 -17 9 3 6 1 10 -4 10 -6 0 -11 -7 -11 -15 0 -21 -10 -19 -37
7 -18 17 -26 19 -35 10 -9 -9 -9 -12 2 -12 7 0 10 -3 7 -7 -4 -3 10 -12 30
-20 45 -15 56 -16 49 -5 -3 5 8 9 24 10 17 0 30 -1 30 -4 0 -9 -93 -45 -104
-40 -6 2 -3 5 7 5 17 1 25 21 8 21 -5 0 -17 3 -27 7 -12 4 -15 3 -10 -5 5 -8
2 -10 -8 -6 -9 3 -14 11 -13 16 1 6 -4 13 -11 15 -8 3 -1 -26 19 -79 17 -45
33 -91 36 -101 5 -15 10 -12 39 18 19 21 31 42 28 50 -4 8 -1 15 4 15 6 0 18
7 27 16 19 20 112 34 101 15 -4 -6 -13 -11 -20 -11 -7 0 -21 -9 -31 -20 -10
-11 -24 -20 -32 -20 -7 0 -13 -5 -13 -10 0 -16 58 -2 80 20 14 14 28 18 49 14
18 -4 31 -1 36 7 6 9 3 11 -8 6 -10 -4 -17 -1 -17 6 0 8 -4 6 -10 -3 -5 -8
-10 -10 -10 -4 0 6 9 21 20 34 25 29 25 31 -3 21 -14 -6 -30 -6 -38 0 -8 5 -9
9 -3 9 7 0 14 10 17 22 5 16 9 19 19 10 20 -16 84 0 80 21 -2 10 4 17 12 17
13 0 13 5 2 37 -12 34 -32 48 -46 33 -32 -33 -49 -41 -70 -30 -18 9 -21 18
-16 41 3 19 1 29 -6 29 -6 0 -1 11 12 25 30 32 40 32 40 0 0 -14 5 -25 10 -25
6 0 10 4 10 9 0 5 8 11 17 13 16 3 16 5 -2 23 -11 11 -19 29 -18 40 1 14 0 15
-3 3 -3 -9 -12 -19 -20 -22 -10 -4 -12 -2 -8 5 5 8 -3 10 -25 7 -17 -2 -31 0
-31 5 0 6 -9 2 -20 -8 -11 -10 -20 -13 -20 -7 0 6 6 13 13 15 7 3 4 6 -6 6
-10 1 -15 6 -12 11 3 5 1 10 -6 10 -7 0 2 15 19 33 29 30 52 81 52 114 0 15
-36 17 -45 3 -3 -6 -17 -10 -31 -10 -14 0 -23 4 -20 9 3 5 -1 14 -9 21 -22 18
-18 40 6 40 11 0 31 8 43 18 l24 17 -25 70 c-14 39 -27 71 -28 73 -2 2 -14 -3
-27 -12 -14 -9 -28 -12 -37 -7 -8 5 -21 7 -30 4 -14 -4 -14 -3 -1 6 13 9 13
11 -1 16 -26 10 -62 1 -88 -24 -23 -20 -26 -21 -29 -6 -2 9 -10 14 -18 11 -8
-3 -14 -1 -14 4 0 13 18 22 24 11 9 -14 45 -1 40 14 -3 7 0 16 5 20 6 3 9 9 7
13 -2 4 7 8 21 9 37 2 114 33 107 44 -3 5 5 23 16 40 12 16 19 33 16 36 -3 4
-6 1 -6 -5 0 -7 -6 -12 -12 -12 -7 1 -3 9 8 19 25 20 15 55 -13 44 -11 -4 -14
-3 -9 5 4 7 2 12 -5 12 -7 0 -10 3 -6 6 3 3 19 -2 36 -12 29 -17 31 -17 51 1
11 10 20 24 20 32 0 7 6 12 12 11 7 -2 13 3 12 10 -1 6 -2 21 -2 33 -2 16 -7
19 -22 14 -18 -6 -17 -3 5 19 14 14 32 26 39 26 8 0 16 9 19 20 5 20 47 29 47
10 0 -5 6 -10 14 -10 8 0 21 -6 28 -13 7 -7 21 -16 31 -20 15 -5 16 -4 7 12
-5 11 -15 22 -22 25 -7 4 -3 4 9 2 22 -4 23 3 8 57 -6 18 -2 17 18 -8 20 -24
23 -34 16 -54 -5 -13 -8 -25 -7 -26 2 -2 67 22 146 53 103 39 141 59 138 69
-4 10 -1 11 12 4 24 -12 158 42 156 64 -1 8 2 15 7 15 5 0 9 -4 9 -10 0 -16
17 -12 114 25 217 85 301 117 461 178 94 36 247 95 340 132 94 36 183 71 198
77 20 8 25 14 18 21 -22 22 -10 36 57 68 43 21 79 31 101 30 23 -2 31 1 26 9
-4 6 -1 17 5 25 9 11 9 15 1 15 -6 0 -11 12 -11 26 0 22 -2 24 -15 14 -15 -12
-35 -6 -35 12 0 5 6 8 14 5 18 -7 28 30 15 55 -17 32 -2 55 41 62 31 5 43 13
55 36 9 17 23 30 33 30 20 -1 52 -23 52 -37 0 -17 27 -35 35 -23 8 13 25 13
25 1 0 -5 -9 -13 -20 -16 -11 -3 -20 -11 -20 -16 0 -6 8 -8 19 -4 21 6 51 -3
51 -17 0 -17 -24 -33 -55 -36 -59 -5 -67 -7 -100 -36 -26 -23 -31 -33 -23 -46
7 -11 20 -15 42 -12 28 5 30 3 17 -12 -8 -9 -11 -19 -8 -22 3 -3 61 16 129 42
67 26 152 58 188 71 35 13 69 28 75 32 5 5 24 11 40 15 17 4 48 15 70 25 22
10 61 26 88 36 26 9 53 23 61 30 7 8 16 12 19 9 10 -10 227 74 227 88 0 11
-28 10 -35 -2 -10 -16 -23 -11 -21 7 3 17 31 30 70 32 14 1 17 -4 13 -19 -6
-24 -9 -24 39 -4 55 23 67 34 54 49 -8 10 -6 15 9 20 62 19 80 10 39 -20 -13
-10 -18 -15 -13 -14 92 32 163 63 159 70 -3 5 -10 9 -15 9 -6 0 -7 -5 -3 -11
5 -8 -5 -10 -32 -7 -28 3 -42 0 -51 -11 -8 -11 -12 -12 -13 -3 0 6 -7 12 -16
12 -11 0 -14 5 -9 18 3 9 9 29 12 45 5 22 2 27 -14 27 -23 0 -49 45 -32 56 6
3 18 -1 28 -10 23 -21 58 -13 82 18 24 30 55 42 73 27 10 -8 17 -7 27 6 9 11
10 14 2 9 -7 -4 -13 -3 -13 2 0 17 25 20 45 6 16 -12 18 -18 7 -34 -10 -17
-10 -20 2 -20 8 0 18 5 21 10 11 18 31 11 43 -15 9 -20 9 -23 -3 -18 -9 3 -15
-1 -15 -9 0 -7 -10 -15 -22 -15 -13 -1 -24 -7 -26 -13 -2 -6 -10 -17 -18 -24
-8 -8 -14 -18 -14 -22 0 -4 -8 -13 -17 -21 -23 -19 -30 -21 237 82 189 73 324
131 257 111 -11 -3 -15 -2 -12 4 3 6 13 10 22 10 9 0 13 6 9 15 -3 8 0 15 5
15 6 0 9 -9 6 -20 -6 -24 1 -25 45 -6 18 8 47 20 64 26 21 8 34 20 37 36 2 13
0 24 -4 24 -16 0 -47 38 -45 54 1 9 8 22 16 29 8 7 10 8 7 1 -4 -7 0 -14 7
-17 8 -3 16 -3 18 1 2 4 17 17 35 29 l32 23 30 -26 c20 -17 44 -26 71 -27 25
-1 40 -6 40 -14 0 -19 9 -17 143 33 120 46 156 64 126 64 -12 0 -12 2 1 10 9
5 19 5 26 -1 9 -7 22 -6 41 4 15 8 51 22 79 31 43 14 51 20 47 36 -3 11 -10
20 -16 20 -14 0 0 13 18 16 7 1 12 -3 9 -9 -2 -7 0 -18 4 -25 7 -10 15 -10 40
1 18 7 29 17 25 21 -4 4 -1 5 7 1 9 -3 64 14 124 38 86 35 104 45 85 50 -15 4
-31 0 -43 -11 -20 -16 -20 -16 -7 1 12 15 11 17 -5 18 -11 0 -14 3 -6 6 6 2
10 9 7 14 -4 5 2 6 11 2 12 -4 15 -3 10 5 -14 23 46 60 70 44 6 -4 17 -21 24
-39 14 -30 35 -38 23 -8 -3 9 1 15 11 15 9 0 16 5 16 11 0 8 14 10 44 6 37 -5
63 1 167 42 68 27 168 65 223 86 54 21 110 48 123 61 27 25 49 32 37 13 -8
-13 35 -2 51 13 6 6 4 7 -7 3 -11 -4 -18 -2 -18 4 0 6 4 11 9 11 4 0 6 11 3
25 -3 17 0 25 9 25 8 0 31 9 52 20 43 23 87 18 87 -9 0 -29 9 -30 76 -3 36 14
60 29 52 32 -16 6 -23 50 -8 50 14 0 70 61 70 76 0 13 28 28 48 25 6 -1 12 5
12 14 0 11 -9 14 -31 13 -20 -2 -34 2 -37 11 -3 10 0 12 12 8 11 -4 16 -1 16
9 0 16 -12 16 -58 3 -8 -2 -19 5 -25 16 -7 11 -15 22 -19 25 -10 8 26 47 50
54 12 4 27 4 34 -1 7 -4 28 -9 47 -10 62 -4 62 -3 58 -116 -2 -57 -7 -109 -11
-115 -4 -7 -5 -12 -2 -12 3 0 68 24 145 54 142 55 202 89 198 115 -4 25 -23
23 -35 -4 -6 -14 -20 -25 -30 -25 -10 0 -27 -7 -38 -15 -30 -23 -124 -1 -124
29 0 3 6 6 14 6 8 0 17 7 20 16 3 9 12 14 19 11 6 -2 29 2 49 9 20 7 38 9 40
4 2 -5 21 -2 43 6 22 7 61 14 86 14 26 0 63 7 84 16 20 8 38 14 39 12 1 -2 6
-13 12 -25 9 -21 9 -21 111 19 102 41 102 41 80 59 l-22 19 25 19 c31 24 40
19 35 -20 -4 -26 -2 -29 10 -19 8 6 19 9 24 5 6 -3 20 4 31 15 11 11 25 18 30
15 5 -3 69 17 142 45 201 77 218 84 218 93 0 5 4 6 9 3 5 -3 34 5 65 17 l56
23 -24 28 c-42 49 -24 79 28 47 l35 -22 11 21 c9 18 13 19 25 6 8 -8 28 -13
45 -12 16 1 30 -1 30 -5 0 -4 9 -5 20 -2 24 6 26 19 5 27 -23 8 -19 45 4 39
10 -3 22 0 25 5 8 14 62 -2 59 -17 -4 -13 2 -14 25 -2 9 6 29 12 44 15 31 7
67 38 49 44 -18 6 -14 60 5 64 14 2 12 8 -10 36 -15 17 -36 32 -45 32 -10 0
-24 11 -31 25 -9 17 -17 22 -25 15 -8 -7 -21 0 -41 22 -16 17 -23 28 -16 24 6
-4 12 -3 12 3 0 18 -15 19 -50 4z m-80 -87 c-7 -7 -13 -7 -20 0 -6 6 -3 10 10
10 13 0 16 -4 10 -10z m80 -51 c0 -2 -9 -9 -20 -15 -16 -9 -18 -8 -14 5 5 13
34 22 34 10z m10 -65 c0 -5 -5 -10 -11 -10 -5 0 -7 5 -4 10 3 6 8 10 11 10 2
0 4 -4 4 -10z m45 0 c-4 -6 8 -24 25 -40 34 -32 29 -41 -6 -12 -25 21 -41 62
-24 62 6 0 8 -5 5 -10z m-98 -32 c-3 -8 -6 -5 -6 6 -1 11 2 17 5 13 3 -3 4
-12 1 -19z m-306 -85 c0 -5 2 -20 4 -36 3 -20 -2 -30 -18 -39 -12 -6 -24 -14
-27 -18 -3 -4 -20 -15 -39 -25 -31 -15 -35 -15 -43 -2 -5 9 -15 23 -24 31 -13
14 -13 18 2 41 19 28 26 30 55 13 18 -11 23 -10 42 14 21 26 46 36 48 21z
m124 -73 c3 -5 1 -10 -4 -10 -6 0 -11 5 -11 10 0 6 2 10 4 10 3 0 8 -4 11 -10z
m-618 -50 c21 0 24 -4 20 -21 -4 -16 2 -25 24 -37 31 -18 37 -31 17 -34 -7 0
-17 -2 -23 -3 -5 -2 -19 -3 -30 -4 -17 -1 -18 -3 -5 -12 13 -9 13 -10 0 -6 -8
2 -15 15 -16 29 -1 14 -11 35 -23 47 -18 18 -20 25 -10 44 8 13 14 17 17 9 2
-6 15 -12 29 -12z m358 0 c3 -5 2 -10 -4 -10 -5 0 -13 5 -16 10 -3 6 -2 10 4
10 5 0 13 -4 16 -10z m5 -30 c0 -5 -5 -10 -11 -10 -5 0 -7 5 -4 10 3 6 8 10
11 10 2 0 4 -4 4 -10z m-273 -17 c-9 -9 -20 -13 -24 -9 -4 4 -1 11 7 16 25 16
35 11 17 -7z m76 -7 c3 -8 -2 -17 -11 -21 -15 -6 -15 -7 2 -17 18 -10 18 -12
2 -24 -13 -9 -25 -10 -47 -2 l-29 10 27 33 c30 37 48 43 56 21z m-1463 -441
c0 -14 -4 -25 -9 -25 -12 0 -23 29 -15 41 10 18 24 9 24 -16z m-460 -99 c0 -3
-4 -8 -10 -11 -5 -3 -10 -1 -10 4 0 6 5 11 10 11 6 0 10 -2 10 -4z m165 -26
c3 -5 1 -10 -4 -10 -6 0 -11 5 -11 10 0 6 2 10 4 10 3 0 8 -4 11 -10z m-250
-30 c3 -5 2 -10 -4 -10 -5 0 -13 5 -16 10 -3 6 -2 10 4 10 5 0 13 -4 16 -10z
m96 -13 c-10 -9 -11 -8 -5 6 3 10 9 15 12 12 3 -3 0 -11 -7 -18z m-281 -37
c-8 -5 -17 -7 -19 -4 -3 3 1 9 9 14 8 5 17 7 19 4 3 -3 -1 -9 -9 -14z m80 -5
c10 -13 9 -15 -9 -15 -12 0 -21 6 -21 15 0 8 4 15 9 15 5 0 14 -7 21 -15z m60
-1 c0 -2 -9 -4 -20 -4 -11 0 -20 4 -20 9 0 5 9 7 20 4 11 -3 20 -7 20 -9z
m247 -10 c5 -15 -28 -27 -40 -15 -5 5 -6 14 -2 21 8 13 37 9 42 -6z m-447 -9
c0 -8 -2 -15 -4 -15 -2 0 -6 7 -10 15 -3 8 -1 15 4 15 6 0 10 -7 10 -15z m487
-27 c-3 -8 -6 -5 -6 6 -1 11 2 17 5 13 3 -3 4 -12 1 -19z m-324 -22 c9 -7 17
-17 17 -21 0 -4 -7 -2 -15 5 -12 10 -15 9 -15 -6 0 -16 -2 -17 -10 -4 -6 10
-6 16 1 19 7 2 6 7 -2 12 -8 5 -9 9 -4 9 6 -1 18 -7 28 -14z m50 -1 c-3 -9 -8
-14 -10 -11 -3 3 -2 9 2 15 9 16 15 13 8 -4z m160 -9 c3 -8 0 -16 -6 -19 -7
-3 -13 3 -13 14 0 22 12 25 19 5z m107 -6 c0 -5 -5 -10 -11 -10 -5 0 -7 5 -4
10 3 6 8 10 11 10 2 0 4 -4 4 -10z m-480 -10 c0 -5 -7 -10 -16 -10 -8 0 -12 5
-9 10 3 6 10 10 16 10 5 0 9 -4 9 -10z m300 -5 c-7 -8 -17 -12 -22 -9 -6 4 -5
10 3 15 22 14 33 10 19 -6z m-384 -33 c-17 -16 -18 -16 -5 5 7 12 15 20 18 17
3 -2 -3 -12 -13 -22z m174 9 c0 -6 -9 -9 -19 -8 -11 0 -17 5 -15 9 7 11 34 10
34 -1z m50 -1 c0 -13 -11 -13 -30 0 -12 8 -11 10 8 10 12 0 22 -4 22 -10z
m180 -14 c0 -3 -4 -8 -10 -11 -5 -3 -10 -1 -10 4 0 6 5 11 10 11 6 0 10 -2 10
-4z m-166 -34 c2 -4 -4 -8 -15 -8 -10 0 -19 4 -19 8 0 4 6 8 14 8 8 0 17 -4
20 -8z m-49 -23 c-3 -4 -12 -6 -20 -2 -8 3 -15 0 -15 -7 0 -7 -8 -9 -21 -5
-16 5 -19 4 -14 -5 5 -9 4 -11 -3 -6 -18 11 -15 20 11 31 25 12 70 7 62 -6z
m58 -14 c8 -20 -11 -30 -28 -15 -8 6 -20 8 -27 4 -10 -6 -9 -3 1 9 17 21 47
22 54 2z m-483 -26 c0 -5 -4 -9 -10 -9 -5 0 -10 7 -10 16 0 8 5 12 10 9 6 -3
10 -10 10 -16z m-247 -16 c9 -3 17 -9 17 -14 0 -5 8 -9 17 -9 22 0 7 -13 -35
-30 -30 -12 -35 -11 -53 8 -16 18 -18 25 -7 42 8 12 19 18 28 14 8 -3 23 -9
33 -11z m571 2 c-10 -8 -23 -15 -28 -15 -6 0 -1 7 10 15 10 8 23 15 28 15 6 0
1 -7 -10 -15z m-224 -52 c-11 -17 -11 -17 -6 0 3 10 6 24 7 30 0 9 2 9 5 0 3
-7 0 -20 -6 -30z m130 -23 c0 -5 -4 -10 -10 -10 -5 0 -10 5 -10 10 0 6 5 10
10 10 6 0 10 -4 10 -10z m-530 -54 c0 -2 -8 -10 -17 -17 -16 -13 -17 -12 -4 4
13 16 21 21 21 13z m-300 -133 c10 -9 -57 -52 -82 -53 -23 0 -28 4 -28 23 0
36 18 47 64 40 23 -3 43 -8 46 -10z m-147 -118 c18 -13 18 -14 -1 -30 -11 -10
-17 -25 -15 -35 3 -12 -4 -20 -24 -28 -60 -23 -72 -23 -92 -3 -27 27 -28 45
-2 31 16 -8 23 -5 40 16 11 14 23 34 26 45 7 22 42 25 68 4z m-986 -297 c-3
-8 -6 -5 -6 6 -1 11 2 17 5 13 3 -3 4 -12 1 -19z m153 -45 c0 -15 -45 -53 -64
-53 -17 0 -15 4 14 30 33 29 50 37 50 23z m-530 -63 c0 -5 -7 -7 -15 -4 -8 4
-15 8 -15 10 0 2 7 4 15 4 8 0 15 -4 15 -10z m20 -50 c0 -5 -4 -10 -10 -10 -5
0 -10 5 -10 10 0 6 5 10 10 10 6 0 10 -4 10 -10z m-705 -158 c6 -4 11 -22 10
-40 0 -26 -6 -37 -26 -48 -23 -12 -31 -11 -62 4 l-36 17 28 13 c15 7 33 23 39
37 12 25 28 31 47 17z m475 -2 c0 -5 -4 -10 -10 -10 -5 0 -10 5 -10 10 0 6 5
10 10 10 6 0 10 -4 10 -10z m-400 -101 c6 -20 3 -24 -17 -24 -15 0 -21 5 -18
13 3 8 5 20 5 29 0 23 23 10 30 -18z m-375 1 c3 -5 -1 -10 -9 -10 -9 0 -16 5
-16 10 0 6 4 10 9 10 6 0 13 -4 16 -10z m-19 -109 c-16 -17 -16 -19 4 -24 11
-3 23 -1 26 4 3 5 9 9 14 9 5 0 -2 -16 -15 -36 -14 -20 -25 -43 -25 -50 0 -7
-12 -14 -27 -16 -14 -2 -29 -9 -31 -17 -3 -8 0 -11 7 -7 6 4 11 2 11 -4 0 -6
-10 -10 -22 -8 -18 2 -24 -3 -26 -22 -3 -24 -26 -50 -45 -50 -5 0 -6 7 -3 16
4 11 2 15 -8 11 -10 -4 -13 -1 -9 9 3 7 0 14 -6 14 -13 0 -14 10 -2 29 8 12
12 12 26 -2 9 -10 22 -17 28 -16 9 0 8 2 0 6 -23 9 -14 30 10 26 21 -4 22 -2
19 35 -3 33 0 42 22 59 14 12 26 25 26 31 0 6 6 13 13 15 25 11 30 6 13 -12z
m137 -61 c3 -11 2 -22 -3 -25 -4 -3 -10 6 -12 20 -6 30 7 34 15 5z m-443 -7
c0 -3 -9 -14 -21 -24 -11 -10 -18 -22 -15 -28 4 -5 2 -12 -3 -15 -10 -6 -25
59 -17 73 6 9 56 3 56 -6z m-417 -168 c-1 -11 4 -23 10 -27 15 -10 -4 -11 -27
-2 -14 5 -14 8 0 22 15 15 15 17 -2 24 -18 7 -18 8 1 5 13 -2 19 -10 18 -22z
m-185 -52 c1 -10 3 -32 5 -50 3 -24 -1 -33 -15 -36 -10 -3 -25 -21 -33 -40
-14 -34 -17 -35 -55 -32 -22 2 -40 -1 -40 -6 0 -5 -13 -9 -29 -9 -17 0 -33 -4
-36 -10 -3 -5 -15 -10 -26 -10 -16 0 -17 3 -7 19 9 15 9 23 -2 36 -10 13 -15
13 -21 3 -7 -10 -9 -9 -9 3 0 9 -7 22 -15 29 -8 7 -14 20 -14 29 1 13 2 13 6
1 2 -8 16 -24 30 -34 24 -18 27 -18 52 -3 14 9 25 21 24 26 -1 5 13 8 32 7 19
-2 35 1 35 7 0 5 9 7 20 4 11 -3 34 1 50 10 16 8 34 12 40 8 5 -3 10 -1 10 4
0 6 -4 11 -10 11 -5 0 -10 10 -10 22 0 21 0 21 -15 2 -8 -10 -15 -14 -15 -8 0
13 21 34 35 34 6 0 12 -8 13 -17z m79 2 c-2 -5 -13 -8 -23 -7 -32 6 -35 17 -3
17 16 1 28 -4 26 -10z m174 -38 c-5 -5 -17 -5 -28 2 -16 9 -15 10 9 9 16 -2
24 -6 19 -11z m-457 -13 c3 -8 2 -12 -4 -9 -6 3 -10 10 -10 16 0 14 7 11 14
-7z m321 -12 c1 -18 -2 -21 -18 -16 -13 4 -17 2 -13 -5 15 -23 -1 -10 -23 20
l-23 30 38 -3 c31 -2 38 -7 39 -26z m-85 -54 c0 -6 -6 -5 -15 2 -8 7 -15 14
-15 16 0 2 7 1 15 -2 8 -4 15 -11 15 -16z m74 -4 c5 -14 4 -15 -9 -4 -17 14
-19 20 -6 20 5 0 12 -7 15 -16z m-392 -47 c-24 -11 -38 -5 -28 11 3 6 16 8 28
4 l22 -5 -22 -10z m385 -3 c-3 -3 -12 -4 -19 -1 -8 3 -5 6 6 6 11 1 17 -2 13
-5z m-154 -24 c-3 -11 -7 -20 -9 -20 -2 0 -4 9 -4 20 0 11 4 20 9 20 5 0 7 -9
4 -20z m-283 -11 c0 -6 -4 -7 -10 -4 -5 3 -10 11 -10 16 0 6 5 7 10 4 6 -3 10
-11 10 -16z m100 -9 c0 -5 -5 -10 -11 -10 -5 0 -7 5 -4 10 3 6 8 10 11 10 2 0
4 -4 4 -10z m-130 -60 c6 -11 7 -20 2 -20 -6 0 -12 9 -15 20 -3 11 -3 20 -1
20 2 0 8 -9 14 -20z m-510 -194 c0 -3 -4 -8 -10 -11 -5 -3 -10 -1 -10 4 0 6 5
11 10 11 6 0 10 -2 10 -4z m210 -32 c0 -2 -9 -4 -21 -4 -11 0 -18 4 -14 10 5
8 35 3 35 -6z m-247 -1 c-7 -2 -13 -12 -13 -20 0 -9 -3 -14 -6 -10 -10 10 4
37 18 36 10 0 10 -2 1 -6z m192 -3 c-3 -5 -11 -10 -16 -10 -6 0 -7 5 -4 10 3
6 11 10 16 10 6 0 7 -4 4 -10z m208 -4 c4 -10 1 -13 -9 -9 -15 6 -19 23 -5 23
5 0 11 -7 14 -14z m-38 -6 c-3 -5 1 -10 9 -10 9 0 13 -6 10 -15 -5 -13 -8 -13
-21 0 -12 13 -11 35 3 35 3 0 2 -4 -1 -10z m-58 -15 c-2 -5 -11 -10 -21 -10
-9 0 -25 -13 -35 -29 -12 -18 -20 -23 -23 -14 -4 11 -8 11 -24 -1 -10 -7 -6
-1 11 14 19 18 25 30 17 33 -24 8 -3 17 37 17 23 0 39 -4 38 -10z m-282 -15
c3 -5 2 -10 -4 -10 -5 0 -13 5 -16 10 -3 6 -2 10 4 10 5 0 13 -4 16 -10z m98
-24 c4 -10 1 -13 -9 -9 -15 6 -19 23 -5 23 5 0 11 -7 14 -14z m-79 -41 c-4 -8
-11 -15 -16 -15 -6 0 -5 6 2 15 7 8 14 15 16 15 2 0 1 -7 -2 -15z m101 -4 c-3
-6 -15 -11 -27 -11 -17 0 -18 -2 -8 -15 16 -20 3 -19 -16 0 -14 13 -13 16 8
24 13 5 26 7 31 4 4 -2 7 1 7 8 0 7 3 10 6 6 3 -3 3 -10 -1 -16z m45 -25 c0
-2 -11 -6 -25 -8 -13 -3 -22 -1 -19 3 5 9 44 13 44 5z m107 -131 c0 -24 -4
-42 -9 -39 -5 3 -6 10 -3 15 4 5 0 9 -7 9 -8 0 -20 6 -26 12 -10 10 -8 16 10
30 33 25 35 23 35 -27z m98 -5 c-4 -6 8 -10 29 -10 45 0 54 -15 24 -40 -30
-25 -49 -25 -81 0 -16 13 -28 16 -32 10 -11 -18 -23 -11 -18 11 4 15 12 20 29
16 13 -2 23 -1 22 2 -1 15 3 21 18 21 8 0 12 -4 9 -10z m-165 -10 c0 -5 -4
-10 -10 -10 -5 0 -10 5 -10 10 0 6 5 10 10 10 6 0 10 -4 10 -10z m-20 -54 c0
-2 -7 -7 -16 -10 -8 -3 -12 -2 -9 4 6 10 25 14 25 6z m275 -126 c3 -5 1 -10
-4 -10 -6 0 -11 5 -11 10 0 6 2 10 4 10 3 0 8 -4 11 -10z m-25 -24 c0 -3 -4
-8 -10 -11 -5 -3 -10 -1 -10 4 0 6 5 11 10 11 6 0 10 -2 10 -4z m-90 -16 c-14
-9 -6 -15 15 -10 6 1 7 -2 3 -5 -4 -4 -2 -17 4 -29 7 -11 11 -25 10 -30 -2 -5
3 -13 10 -17 10 -7 9 -9 -4 -9 -10 0 -18 5 -18 10 0 6 -11 10 -25 10 -16 0
-25 6 -25 15 0 8 7 15 15 15 17 0 20 25 5 35 -13 8 -3 25 13 25 7 0 6 -4 -3
-10z m17 -108 c14 -8 33 -12 48 -8 36 9 32 -13 -5 -25 -16 -6 -30 -15 -30 -20
0 -5 -12 -9 -26 -9 -14 0 -23 -4 -20 -9 3 -4 -6 -6 -19 -3 -14 2 -25 8 -25 13
0 5 -12 9 -27 9 -49 0 -72 11 -82 40 -9 28 -9 28 28 25 20 -2 43 0 50 5 18 11
80 1 108 -18z m173 -22 c0 -5 -2 -10 -4 -10 -3 0 -8 5 -11 10 -3 6 -1 10 4 10
6 0 11 -4 11 -10z m-303 -56 c-3 -3 -12 -4 -19 -1 -8 3 -5 6 6 6 11 1 17 -2
13 -5z m148 -34 c3 -5 2 -10 -4 -10 -5 0 -13 5 -16 10 -3 6 -2 10 4 10 5 0 13
-4 16 -10z m-111 -16 c9 -3 16 -14 15 -23 0 -10 -2 -11 -6 -3 -2 6 -11 12 -19
12 -8 0 -14 5 -14 10 0 12 3 12 24 4z m171 -4 c-11 -5 -33 -8 -50 -8 -29 1
-29 1 5 8 49 10 69 10 45 0z m190 -47 c-11 -3 -25 -9 -31 -14 -6 -5 -14 -6
-17 -2 -15 14 -6 20 31 20 20 0 28 -2 17 -4z"/>
<path d="M1770 3210 c-13 -8 -12 -10 3 -10 9 0 17 5 17 10 0 12 -1 12 -20 0z"/>
<path d="M8865 6880 c-3 -5 -1 -10 4 -10 6 0 11 5 11 10 0 6 -2 10 -4 10 -3 0
-8 -4 -11 -10z"/>
<path d="M10860 6635 c9 -11 9 -22 1 -46 -7 -21 -7 -37 0 -50 13 -26 39 -25
32 1 -4 13 3 26 18 39 l24 19 -27 11 c-16 6 -28 17 -28 26 0 8 -7 15 -16 15
-13 0 -14 -3 -4 -15z"/>
<path d="M10193 6443 c-51 -19 -91 -40 -90 -46 1 -6 -7 -11 -18 -12 -50 -4
-56 -6 -50 -16 4 -6 -2 -13 -14 -16 -39 -10 -23 -59 25 -72 25 -6 34 -19 68
-104 22 -53 43 -94 48 -91 17 11 46 -7 41 -25 -3 -10 0 -22 6 -25 19 -12 12
-29 -9 -23 -11 3 -20 2 -20 -1 0 -4 34 -92 74 -197 l75 -190 -19 -30 c-20 -33
-14 -68 14 -78 9 -4 68 14 132 39 171 66 158 52 128 132 -81 217 -117 301
-127 295 -6 -4 -8 0 -4 11 4 11 -20 87 -63 198 -65 164 -69 182 -55 198 18 20
20 61 3 78 -18 18 -44 13 -145 -25z m24 -59 c-3 -3 -12 -4 -19 -1 -8 3 -5 6 6
6 11 1 17 -2 13 -5z m-27 -19 c10 -12 8 -13 -10 -10 -16 3 -20 0 -16 -10 3 -9
-1 -15 -10 -15 -11 0 -14 6 -10 16 3 9 6 20 6 25 0 14 26 11 40 -6z m-150 -40
c-7 -8 -17 -12 -23 -8 -6 4 -3 9 9 14 27 11 28 11 14 -6z m293 -345 c3 -11 1
-20 -4 -20 -5 0 -9 4 -9 9 0 5 -3 17 -7 27 -4 11 -3 15 4 11 6 -4 13 -16 16
-27z m40 -130 c3 -13 0 -23 -9 -27 -12 -4 -11 -8 5 -20 21 -14 23 -45 5 -63
-7 -7 -16 -4 -29 10 -10 11 -24 20 -30 20 -17 0 -27 28 -16 47 4 9 6 24 4 34
-4 13 2 18 24 21 36 5 39 3 46 -22z"/>
<path d="M9552 6196 c-62 -23 -82 -35 -79 -47 5 -18 -24 -22 -35 -5 -4 6 -8
-5 -8 -24 0 -26 17 -64 62 -139 34 -57 67 -105 74 -108 7 -2 11 -10 9 -16 -2
-7 22 -52 54 -102 51 -80 61 -91 92 -95 39 -6 42 -14 16 -50 -15 -21 -25 -25
-70 -25 l-52 0 2 -39 c2 -22 7 -44 12 -49 11 -11 101 19 101 33 0 14 39 32 51
24 8 -4 8 -9 0 -17 -8 -8 -3 -24 16 -56 22 -38 24 -49 15 -74 -12 -33 -2 -71
22 -80 18 -7 43 0 166 48 121 47 146 60 154 80 9 24 -11 54 -40 61 -28 7 -73
72 -256 369 -171 279 -213 344 -218 344 -3 -1 -42 -15 -88 -33z m58 -116 c0
-5 -2 -10 -4 -10 -3 0 -8 5 -11 10 -3 6 -1 10 4 10 6 0 11 -4 11 -10z m35 -30
c16 -18 16 -20 2 -20 -17 0 -22 -23 -20 -77 2 -30 -35 -38 -67 -14 -29 22 -31
66 -3 87 10 7 27 19 38 28 26 20 29 20 50 -4z m23 -159 c3 -8 -1 -12 -9 -9 -7
2 -15 10 -17 17 -3 8 1 12 9 9 7 -2 15 -10 17 -17z m-39 -15 c12 -13 19 -26
14 -28 -14 -8 -48 16 -49 35 -2 23 8 21 35 -7z"/>
<path d="M10671 5994 c-17 -12 -21 -22 -16 -41 3 -14 6 -56 6 -93 0 -72 -17
-121 -50 -142 -17 -10 -17 -14 -3 -50 8 -21 21 -38 28 -38 19 0 178 61 190 74
8 8 -2 46 -41 146 -66 169 -70 174 -114 144z"/>
<path d="M8860 5929 c-68 -27 -131 -55 -139 -64 -23 -23 -3 -69 31 -73 34 -4
37 -8 83 -127 21 -55 43 -106 48 -113 6 -7 12 -23 13 -35 1 -12 33 -101 71
-197 55 -142 71 -175 86 -172 9 2 17 8 17 14 0 5 7 8 15 4 8 -3 14 -2 14 2 -3
17 2 32 10 32 14 0 21 -44 8 -52 -8 -5 -6 -8 7 -8 15 0 16 -3 6 -15 -7 -8 -25
-15 -40 -15 -15 0 -34 -7 -41 -16 -12 -14 -14 -14 -20 3 -6 15 -8 13 -14 -11
-18 -69 26 -80 142 -35 77 29 82 33 68 49 -27 30 -19 50 20 50 19 0 38 0 43 0
4 0 8 -4 8 -10 1 -5 2 -14 3 -20 2 -16 27 -11 45 9 17 18 16 20 -14 37 -17 11
-29 25 -27 34 1 8 -3 20 -9 25 -7 6 -51 108 -98 229 -47 120 -87 220 -90 223
-3 3 -18 1 -34 -5 -34 -12 -55 -2 -46 21 3 9 11 14 17 10 6 -4 8 0 4 10 -5 12
-1 17 13 17 11 0 20 -5 20 -12 0 -6 2 -9 5 -6 3 3 -6 40 -21 83 -25 75 -25 78
-9 109 14 26 15 37 6 54 -18 33 -59 27 -201 -29z m51 -166 c7 -10 10 -15 5
-11 -5 4 -17 3 -27 -2 -22 -12 -39 8 -18 21 20 12 25 11 40 -8z m158 -335 c15
-9 26 -9 44 -1 23 11 23 10 22 -32 -3 -55 -10 -65 -46 -65 -29 0 -29 1 -13 17
9 9 13 18 8 20 -5 1 -28 7 -51 13 -52 13 -61 49 -10 41 4 0 7 4 7 9 0 13 16
13 39 -2z"/>
<path d="M9064 5394 c-18 -15 -18 -15 9 -9 17 3 27 1 27 -6 0 -7 2 -10 5 -7 7
7 -5 38 -14 38 -4 0 -16 -7 -27 -16z"/>
<path d="M9450 5970 c0 -9 31 -30 45 -30 3 0 1 9 -5 20 -11 20 -40 28 -40 10z"/>
<path d="M9500 5880 c0 -5 5 -10 10 -10 6 0 10 5 10 10 0 6 -4 10 -10 10 -5 0
-10 -4 -10 -10z"/>
<path d="M9542 5829 c-10 -15 -20 -20 -39 -16 -25 5 -25 5 -19 -52 12 -107 28
-183 36 -171 13 20 22 -7 10 -29 -7 -14 -7 -48 2 -116 12 -92 11 -98 -10 -138
-25 -47 -28 -72 -10 -83 8 -5 9 -2 5 10 -6 14 -3 15 14 6 11 -6 17 -15 14 -21
-4 -5 1 -9 9 -9 21 0 126 40 154 58 l23 15 -30 20 c-17 10 -28 24 -25 29 4 6
-5 20 -20 32 -20 16 -29 36 -38 86 -10 59 -39 109 -59 103 -4 -1 -6 9 -5 23 1
20 5 24 22 20 20 -5 20 -4 8 72 -7 42 -16 101 -21 130 -7 49 -9 51 -21 31z"/>
<path d="M8455 5770 c-38 -15 -70 -32 -69 -36 2 -35 18 -64 36 -64 12 0 17 4
12 12 -4 6 -3 8 4 4 6 -3 9 -16 7 -27 -2 -11 2 -22 10 -25 15 -6 95 -117 95
-133 0 -5 10 -17 21 -25 17 -11 27 -12 45 -4 13 6 24 16 24 22 0 6 -5 5 -12
-2 -12 -12 -58 -17 -58 -6 0 9 24 30 43 37 9 3 17 11 17 17 0 13 -23 13 -37
-1 -7 -7 -13 -7 -17 -1 -8 13 22 44 35 37 13 -9 11 0 -10 53 -10 26 -29 73
-41 105 -12 31 -25 59 -29 61 -3 2 -37 -9 -76 -24z"/>
<path d="M8330 5723 c-8 -3 -35 -15 -60 -26 -51 -23 -54 -24 -76 -26 -11 -1
-14 -7 -10 -17 5 -14 4 -15 -8 -5 -11 9 -20 10 -35 1 -20 -10 -20 -11 -3 -58
10 -26 76 -197 147 -379 121 -314 127 -334 112 -351 -40 -44 -2 -98 56 -81 59
16 87 31 87 45 0 11 7 13 27 8 l27 -7 -17 26 c-10 15 -13 27 -7 27 6 0 9 4 6
9 -3 5 -14 7 -24 4 -12 -3 -25 4 -36 21 -16 26 -16 26 14 26 16 0 30 5 30 10
0 6 -7 10 -15 10 -17 0 -19 9 -6 29 5 7 14 11 20 7 12 -8 57 19 65 39 4 11
-138 396 -211 572 -3 7 -10 10 -16 6 -6 -4 -8 0 -4 10 8 21 -21 107 -36 106
-7 0 -19 -3 -27 -6z m16 -122 c-15 -17 -16 -19 -1 -25 9 -3 20 -4 25 -1 4 3 6
-3 3 -14 -4 -16 -9 -17 -33 -8 -30 11 -30 31 -1 54 23 18 26 16 7 -6z m155
-341 c5 0 9 -4 9 -10 0 -5 -7 -10 -15 -10 -7 0 -19 -8 -24 -17 -9 -15 -10 -12
-11 16 0 26 3 32 16 27 9 -3 20 -6 25 -6z"/>
<path d="M8023 5606 c-29 -12 -57 -26 -62 -31 -10 -11 84 -260 108 -289 17
-20 45 -21 61 -1 11 13 11 29 0 85 -8 41 -11 95 -7 135 5 50 3 75 -9 96 -17
34 -22 34 -91 5z"/>
<path d="M7665 5467 c-68 -28 -80 -37 -83 -59 -3 -28 20 -58 46 -58 9 0 24 -6
32 -13 23 -18 60 -73 60 -89 0 -8 5 -19 12 -26 6 -6 13 -17 14 -24 10 -58 42
-119 87 -165 28 -29 55 -53 59 -53 15 0 8 41 -16 93 -13 29 -27 62 -30 73 -5
16 -18 23 -48 28 -22 4 -38 9 -34 13 3 3 2 11 -3 17 -4 6 -11 19 -14 28 -8 23
24 19 53 -7 25 -22 25 -22 0 50 -24 71 -25 104 -3 143 14 25 15 35 5 56 -15
34 -38 33 -137 -7z"/>
<path d="M7333 5339 c-70 -28 -104 -46 -108 -60 -7 -21 -21 -25 -27 -7 -7 21
-28 -2 -28 -31 0 -36 17 -51 57 -51 23 0 33 5 33 15 0 8 4 15 9 15 4 0 6 -12
3 -26 -4 -21 6 -36 59 -86 35 -34 174 -167 308 -297 134 -130 251 -237 261
-239 9 -2 44 9 76 24 l59 27 -40 10 c-37 9 -54 22 -55 38 0 14 52 20 66 8 22
-18 27 -5 11 32 -8 19 -25 40 -40 48 -22 12 -24 17 -15 37 8 18 8 35 -3 66
-10 33 -49 77 -184 208 -229 225 -315 305 -328 307 -7 1 -58 -16 -114 -38z
m128 -39 c10 -6 19 -17 19 -25 0 -19 -5 -19 -35 1 -41 27 -27 47 16 24z m21
-92 c-9 -9 -15 -9 -24 1 -11 10 -10 11 5 6 10 -5 17 -2 17 6 0 7 3 9 7 6 4 -4
1 -13 -5 -19z m-148 -14 c3 -8 2 -12 -4 -9 -6 3 -10 10 -10 16 0 14 7 11 14
-7z m26 -38 c0 -2 -8 -10 -17 -17 -16 -13 -17 -12 -4 4 13 16 21 21 21 13z
m119 -145 c-1 -13 -2 -13 -6 2 -2 9 -9 17 -14 17 -5 0 -9 5 -9 11 0 8 5 8 15
-1 8 -7 14 -20 14 -29z m56 -71 c3 -5 1 -10 -4 -10 -6 0 -11 5 -11 10 0 6 2
10 4 10 3 0 8 -4 11 -10z m412 -207 c-8 -7 -37 9 -31 19 3 5 12 4 20 -3 8 -6
13 -14 11 -16z m-17 -45 c0 -5 -4 -8 -10 -8 -5 0 -10 10 -10 23 0 18 2 19 10
7 5 -8 10 -18 10 -22z"/>
<path d="M9344 5183 c2 -9 8 -19 14 -21 6 -2 8 5 5 17 -6 25 -22 28 -19 4z"/>
<path d="M6890 5166 c-150 -54 -150 -53 -128 -113 10 -26 16 -31 34 -27 46 12
107 -16 161 -72 28 -30 58 -54 65 -54 21 0 38 21 38 47 0 18 -6 23 -27 24 -23
1 -24 2 -6 6 21 4 21 6 8 36 -7 18 -26 65 -40 105 -15 39 -30 72 -33 72 -4 -1
-36 -11 -72 -24z m65 -126 c3 -5 1 -10 -4 -10 -6 0 -11 5 -11 10 0 6 2 10 4
10 3 0 8 -4 11 -10z m15 -41 c0 -5 5 -7 10 -4 6 3 10 2 10 -4 0 -14 -53 -8
-58 7 -2 7 5 12 17 12 12 0 21 -5 21 -11z"/>
<path d="M4365 5140 c3 -5 10 -10 16 -10 5 0 9 5 9 10 0 6 -7 10 -16 10 -8 0
-12 -4 -9 -10z"/>
<path d="M6675 5085 c-16 -8 -70 -29 -119 -47 -97 -36 -125 -62 -106 -97 6
-11 25 -24 42 -29 29 -7 34 -17 85 -147 30 -77 60 -147 67 -155 8 -8 12 -19
10 -25 -7 -18 34 -110 50 -113 9 -2 16 2 16 8 0 6 -4 8 -10 5 -5 -3 -10 -2
-10 3 0 6 6 12 14 15 26 10 38 -79 14 -94 -7 -4 -1 -32 16 -76 27 -72 32 -103
17 -103 -30 0 -18 -71 14 -84 14 -5 143 39 187 64 10 6 23 10 30 10 7 0 24 9
38 19 l24 19 -22 54 c-12 29 -22 58 -22 64 0 18 -30 39 -38 28 -6 -10 -38 -26
-54 -28 -3 -1 -10 -5 -15 -9 -4 -5 -3 -7 2 -6 15 4 55 -11 55 -21 0 -20 -32
-17 -55 6 -21 20 -28 23 -45 14 -11 -6 -18 -15 -15 -21 13 -20 -7 -30 -25 -14
-12 11 -26 14 -41 10 -14 -5 -19 -4 -15 4 4 6 2 11 -4 11 -6 0 -8 5 -4 11 4 8
9 8 17 0 15 -15 27 -14 27 3 0 19 59 29 78 14 13 -11 14 -10 8 8 -5 15 4 29
37 60 l43 39 -87 225 c-48 124 -101 262 -118 308 -18 45 -38 82 -44 81 -7 0
-25 -6 -42 -14z m15 -15 c0 -5 -5 -10 -11 -10 -5 0 -7 5 -4 10 3 6 8 10 11 10
2 0 4 -4 4 -10z m-36 -34 c-7 -17 -34 -22 -34 -6 0 6 7 10 15 10 8 0 15 5 15
12 0 6 2 9 5 6 3 -3 3 -13 -1 -22z m76 -468 c-10 -4 -23 -14 -28 -24 -8 -15
-11 -14 -26 7 -19 28 -21 40 -3 33 7 -2 24 -1 38 4 16 6 26 6 31 -2 4 -6 -1
-14 -12 -18z m250 -248 c0 -5 -5 -10 -11 -10 -5 0 -7 5 -4 10 3 6 8 10 11 10
2 0 4 -4 4 -10z m-5 -50 c3 -5 2 -10 -4 -10 -5 0 -13 5 -16 10 -3 6 -2 10 4
10 5 0 13 -4 16 -10z m-81 -56 c3 -8 2 -12 -4 -9 -6 3 -10 10 -10 16 0 14 7
11 14 -7z m-127 -26 c-3 -8 -6 -5 -6 6 -1 11 2 17 5 13 3 -3 4 -12 1 -19z
m104 7 c11 6 11 5 2 -5 -12 -14 -33 -6 -33 13 0 8 3 7 9 -2 5 -8 14 -10 22 -6z"/>
<path d="M7310 5081 c0 -5 41 -113 90 -240 70 -180 90 -244 90 -282 0 -42 3
-49 20 -49 28 0 25 -14 -7 -36 -18 -12 -23 -19 -14 -22 11 -4 11 -6 0 -13 -25
-15 22 -23 60 -9 105 37 141 59 141 83 0 24 -27 57 -47 57 -27 0 -64 47 -94
120 -18 44 -38 80 -45 80 -15 0 -26 28 -13 32 12 4 -9 68 -22 68 -4 0 -6 6 -3
14 8 22 -36 105 -84 157 -41 45 -72 62 -72 40z"/>
<path d="M8630 4959 c11 -19 35 -26 44 -11 8 13 -8 28 -32 29 -19 2 -21 -1
-12 -18z"/>
<path d="M8690 4910 c0 -38 2 -40 20 -30 11 6 20 19 20 30 0 11 -9 24 -20 30
-18 10 -20 8 -20 -30z"/>
<path d="M6940 4912 c-25 -8 -30 -25 -24 -79 5 -41 2 -59 -10 -79 -16 -23 -16
-28 -1 -67 12 -31 22 -43 38 -44 12 -1 41 -23 65 -50 24 -26 39 -38 33 -26
-17 34 -13 42 17 40 18 -1 27 3 27 13 0 10 -8 14 -22 12 -26 -4 -31 13 -7 26
15 8 6 39 -71 234 -8 20 -24 27 -45 20z"/>
<path d="M4003 4869 c-27 -10 -30 -31 -6 -50 9 -8 14 -9 10 -3 -4 7 2 14 13
17 19 5 28 31 13 40 -5 3 -18 1 -30 -4z m12 -19 c3 -5 1 -10 -4 -10 -6 0 -11
5 -11 10 0 6 2 10 4 10 3 0 8 -4 11 -10z"/>
<path d="M8609 4858 c-10 -18 -9 -20 6 -15 9 4 21 7 26 7 15 0 10 17 -6 24 -9
3 -19 -3 -26 -16z"/>
<path d="M5983 4818 c-38 -13 -38 -13 -17 -63 13 -33 18 -37 44 -33 17 3 28 3
25 0 -2 -2 6 -21 19 -41 12 -20 40 -83 63 -141 178 -459 176 -453 149 -494
-21 -34 -20 -39 7 -32 14 3 35 -2 54 -14 30 -18 32 -18 48 0 9 10 14 23 10 29
-3 7 0 8 10 5 11 -5 23 11 47 62 30 64 32 77 32 169 0 100 -11 148 -59 259
-50 119 -156 240 -242 278 -54 24 -145 32 -190 16z m291 -373 c-4 -8 -8 -15
-10 -15 -2 0 -4 7 -4 15 0 8 4 15 10 15 5 0 7 -7 4 -15z m66 -50 c9 -11 5 -21
-25 -51 l-37 -37 7 32 c4 20 3 31 -4 31 -6 0 -11 9 -11 20 0 15 7 20 29 20 16
0 34 -7 41 -15z"/>
<path d="M6325 4380 c3 -5 8 -10 11 -10 2 0 4 5 4 10 0 6 -5 10 -11 10 -5 0
-7 -4 -4 -10z"/>
<path d="M5843 4763 c-35 -14 -63 -29 -63 -35 0 -5 -8 -7 -17 -4 -10 3 -38 -5
-63 -17 -67 -33 -67 -87 -1 -102 26 -5 33 -18 71 -121 30 -79 47 -113 56 -110
8 3 16 1 19 -4 9 -14 59 -12 74 3 11 10 13 5 8 -27 -8 -48 -13 -53 -37 -38
-23 14 -50 16 -50 3 0 -6 31 -90 70 -188 64 -164 68 -179 55 -200 -21 -31 -19
-59 6 -76 18 -13 32 -10 147 34 69 27 131 54 136 59 8 8 5 9 -9 4 -17 -7 -18
-6 -7 8 11 14 6 34 -31 130 -25 62 -61 157 -82 211 -20 53 -41 100 -46 103
-14 8 -11 -9 7 -34 14 -21 14 -22 -10 -22 -22 0 -26 5 -26 28 0 16 -7 37 -15
48 -20 26 -19 33 5 27 11 -3 20 0 20 6 0 21 -72 201 -79 197 -4 -3 -8 8 -9 24
-3 41 -39 120 -54 120 -7 -1 -41 -12 -75 -27z m-83 -57 c0 -3 -4 -8 -10 -11
-5 -3 -10 -1 -10 4 0 6 5 11 10 11 6 0 10 -2 10 -4z m135 -43 c-8 -7 -17 -13
-21 -13 -4 0 -4 3 -1 7 4 3 2 12 -4 19 -17 21 -1 35 21 17 15 -13 16 -18 5
-30z m-48 5 c-2 -7 0 -21 5 -32 8 -14 7 -17 -4 -14 -12 4 -14 14 -9 48 0 6 4
10 7 10 3 0 4 -6 1 -12z m305 -567 c4 -1 6 -14 5 -31 -2 -32 -21 -41 -31 -14
-3 8 -10 12 -16 9 -14 -9 -12 -25 3 -25 28 0 40 -17 28 -39 -14 -26 -38 -27
-71 -2 -23 18 -23 21 -10 48 23 46 41 63 64 58 11 -2 24 -4 28 -4z"/>
<path d="M10342 4651 c-10 -6 -10 -10 0 -19 8 -6 19 -7 26 -3 10 6 10 10 0 19
-8 6 -19 7 -26 3z"/>
<path d="M3788 4643 c-12 -3 -17 -13 -16 -29 1 -13 4 -24 5 -24 1 0 21 7 43
16 67 27 41 56 -32 37z"/>
<path d="M7144 4598 c-4 -6 -9 -44 -10 -85 -3 -58 -9 -82 -29 -114 -21 -32
-24 -43 -14 -55 13 -16 49 -19 49 -4 0 6 7 10 15 10 20 0 19 27 -2 38 -12 7
-7 10 23 10 38 1 94 16 94 27 0 3 -16 45 -36 95 -31 77 -39 90 -59 90 -13 0
-27 -5 -31 -12z"/>
<path d="M5281 4547 c-74 -29 -138 -59 -143 -67 -16 -25 7 -67 41 -75 27 -6
33 -15 67 -104 37 -96 39 -99 68 -97 27 1 31 -2 28 -21 -2 -13 2 -23 7 -23 6
0 11 -7 11 -16 0 -12 -6 -15 -26 -10 -20 5 -25 4 -21 -6 3 -7 38 -97 78 -200
71 -184 72 -188 54 -208 -26 -29 -10 -74 27 -78 29 -3 263 82 291 106 17 16
22 49 9 67 -4 6 -20 15 -36 20 -26 9 -34 25 -78 140 -28 72 -53 132 -56 135
-4 3 -8 12 -8 20 -1 8 -32 93 -69 189 -54 139 -65 178 -56 190 20 29 22 37 12
64 -15 39 -44 35 -200 -26z m193 -456 c-6 -6 -24 19 -24 34 1 6 7 1 15 -9 8
-11 12 -22 9 -25z m36 -110 c7 -15 6 -23 -5 -35 -13 -13 -13 -15 5 -21 16 -5
19 -12 14 -28 -11 -38 -21 -40 -58 -12 -33 25 -36 31 -30 64 4 20 9 39 11 44
9 15 53 6 63 -12z"/>
<path d="M7075 4580 c3 -5 10 -10 16 -10 5 0 9 5 9 10 0 6 -7 10 -16 10 -8 0
-12 -4 -9 -10z"/>
<path d="M9408 4558 c-37 -13 -35 -23 5 -25 21 -2 27 1 18 6 -11 7 -11 9 0 13
8 3 12 8 9 10 -3 3 -17 1 -32 -4z"/>
<path d="M9790 4419 c0 -5 5 -7 10 -4 6 3 10 8 10 11 0 2 -4 4 -10 4 -5 0 -10
-5 -10 -11z"/>
<path d="M4830 4374 c-46 -19 -87 -37 -91 -42 -4 -4 0 -24 8 -44 14 -35 18
-38 54 -38 46 0 103 -27 138 -64 l24 -25 17 22 c10 12 21 19 25 15 14 -13 11
-43 -4 -55 -20 -15 -9 -27 18 -18 36 11 33 40 -15 164 -54 141 -46 136 -174
85z"/>
<path d="M7257 4404 c-9 -10 2 -24 18 -24 9 0 12 6 9 15 -6 16 -17 19 -27 9z"/>
<path d="M7052 4342 c-7 -5 -10 -16 -7 -25 6 -14 8 -14 25 1 27 23 12 43 -18
24z"/>
<path d="M4625 4294 c-116 -48 -134 -57 -128 -66 3 -6 -3 -7 -16 -3 -27 8 -51
-10 -51 -40 0 -26 15 -41 52 -50 17 -5 30 -17 37 -36 10 -29 11 -30 36 -13 14
9 28 14 32 11 9 -9 -17 -37 -34 -37 -18 0 -17 -1 56 -193 31 -82 64 -157 73
-167 10 -10 16 -25 13 -32 -3 -7 11 -53 30 -102 32 -83 34 -91 20 -112 -21
-32 -19 -60 6 -77 23 -16 45 -13 114 18 22 10 43 19 47 19 16 2 20 17 8 31
-16 20 -2 19 20 0 16 -14 22 -14 61 1 57 22 79 42 79 69 0 27 -16 42 -49 47
-22 3 -38 37 -170 380 -104 270 -150 378 -161 377 -8 0 -42 -12 -75 -25z m141
-209 c0 -26 -4 -35 -15 -35 -27 0 -61 12 -61 21 0 5 7 6 15 3 9 -4 15 0 15 10
0 22 20 20 21 -1 1 -18 2 -16 14 25 7 20 10 14 11 -23z m-96 -82 c0 -7 5 -13
11 -13 19 0 4 -43 -19 -51 -17 -7 -29 -2 -57 22 -37 33 -41 44 -25 69 9 13 12
12 25 -4 14 -18 15 -18 15 -2 0 10 4 14 12 10 8 -5 9 -1 5 12 -5 14 -2 12 13
-6 11 -14 20 -31 20 -37z m135 17 c3 -5 -1 -10 -9 -10 -9 0 -16 5 -16 10 0 6
4 10 9 10 6 0 13 -4 16 -10z m-20 -48 c-2 -2 -12 -1 -22 3 -10 5 -21 7 -25 7
-10 -2 -10 2 -2 23 6 14 9 13 30 -6 13 -12 22 -24 19 -27z m108 -199 c4 -3 -2
-16 -14 -31 -25 -32 -71 -45 -96 -26 -11 8 -13 13 -5 14 6 0 11 3 11 8 -6 39
57 60 104 35z m-155 -65 c16 -16 15 -58 -1 -58 -7 0 -21 16 -30 35 -16 33 -16
35 1 35 10 0 23 -5 30 -12z m192 -38 c0 -12 -48 -25 -58 -16 -8 9 18 26 41 26
9 0 17 -4 17 -10z m-70 -206 c0 -8 7 -14 15 -14 20 0 19 -19 -1 -27 -23 -9
-62 13 -61 34 3 32 47 39 47 7z"/>
<path d="M4580 4010 c0 -5 5 -10 10 -10 6 0 10 5 10 10 0 6 -4 10 -10 10 -5 0
-10 -4 -10 -10z"/>
<path d="M4636 4011 c-4 -5 -2 -12 3 -15 5 -4 12 -2 15 3 4 5 2 12 -3 15 -5 4
-12 2 -15 -3z"/>
<path d="M7185 4300 c-3 -6 1 -7 9 -4 18 7 21 14 7 14 -6 0 -13 -4 -16 -10z"/>
<path d="M7066 4275 c7 -17 44 -21 44 -4 0 6 -7 9 -15 5 -8 -3 -15 -1 -15 4 0
6 -4 10 -10 10 -5 0 -7 -7 -4 -15z"/>
<path d="M8419 4172 c-13 -9 -28 -17 -34 -18 -5 0 -18 -2 -27 -2 -13 -2 -16
-9 -13 -33 2 -19 -2 -37 -11 -47 -13 -13 -18 -12 -37 9 -12 13 -21 28 -19 33
2 4 -3 6 -10 3 -21 -8 -534 -206 -643 -248 -480 -184 -479 -183 -483 -218 -3
-31 -3 -32 30 -26 23 4 45 0 71 -14 55 -28 66 -39 73 -77 6 -32 14 -38 51 -37
7 1 10 -3 7 -8 -11 -18 30 -8 125 31 53 22 102 40 109 40 6 0 0 11 -13 25 -27
26 -33 65 -11 65 7 0 19 7 26 15 7 8 21 15 31 15 15 0 18 -5 14 -22 -14 -62
-13 -78 1 -78 8 0 14 4 14 10 0 5 3 9 8 8 14 -3 92 25 92 34 0 5 -9 6 -20 3
-11 -4 -20 -2 -20 4 0 6 5 11 10 11 6 0 10 6 10 14 0 22 19 29 37 14 10 -8 14
-8 10 -1 -4 6 -3 14 3 18 6 4 10 -4 10 -19 0 -19 5 -24 23 -22 26 3 227 79
227 86 0 3 -14 5 -31 6 -16 1 -35 6 -41 12 -16 16 9 72 33 72 10 0 21 4 24 10
4 6 -1 7 -10 3 -13 -4 -16 -1 -14 12 2 9 22 23 44 31 41 15 90 11 80 -6 -7
-12 5 -13 23 -2 21 14 3 44 -23 39 -21 -3 -23 0 -21 37 1 40 2 41 36 42 64 2
82 -8 96 -54 6 -24 17 -49 23 -56 9 -10 9 -15 1 -18 -6 -2 -12 -10 -13 -18 -2
-8 -6 -21 -11 -29 -5 -8 -5 -12 1 -10 347 132 453 176 453 189 0 8 -12 24 -25
35 -31 24 -37 30 -71 73 -14 17 -29 32 -32 32 -4 0 -13 -15 -21 -32 -17 -41
-54 -98 -63 -98 -4 0 -17 14 -29 32 -13 17 -18 28 -11 25 6 -5 16 2 23 15 7
13 19 28 28 35 10 8 11 12 4 13 -6 0 -15 -4 -18 -10 -3 -5 -11 -10 -18 -10 -8
0 -8 3 1 12 18 18 15 34 -12 51 -21 14 -26 14 -47 -1z m-29 -180 c0 -5 -10
-17 -22 -28 -12 -10 -18 -14 -15 -7 4 6 3 14 -3 18 -6 4 -8 11 -5 16 8 11 45
12 45 1z m-40 -84 c0 -23 -3 -29 -9 -19 -8 12 -4 51 5 51 2 0 4 -15 4 -32z
m-640 -288 c0 -5 -7 -10 -16 -10 -8 0 -12 5 -9 10 3 6 10 10 16 10 5 0 9 -4 9
-10z m-130 -50 c0 -5 -4 -10 -10 -10 -5 0 -10 5 -10 10 0 6 5 10 10 10 6 0 10
-4 10 -10z"/>
<path d="M1767 4142 c-12 -2 -16 -9 -13 -19 5 -13 4 -14 -8 -3 -12 9 -22 9
-47 -4 -18 -9 -38 -16 -45 -16 -19 0 -27 -18 -20 -45 4 -16 11 -22 21 -18 12
4 13 8 4 19 -7 8 -10 16 -8 17 11 7 77 27 91 27 15 0 55 37 47 43 -2 2 -12 2
-22 -1z"/>
<path d="M4912 4127 c-6 -7 -11 -41 -10 -75 0 -37 -4 -68 -12 -77 -22 -27 4
-92 44 -109 18 -7 47 -32 65 -55 23 -29 40 -41 54 -39 45 7 43 29 -21 194 -34
87 -67 161 -74 166 -19 11 -34 10 -46 -5z"/>
<path d="M4115 4096 c-71 -28 -80 -35 -83 -59 -4 -32 13 -57 38 -57 30 0 66
-38 99 -104 28 -55 35 -63 54 -58 12 3 25 10 29 16 5 7 8 4 8 -7 0 -11 -10
-19 -29 -23 l-29 -6 16 -44 c9 -25 31 -59 49 -76 l33 -32 0 29 c0 23 3 26 12
17 10 -10 10 -17 1 -31 -10 -15 -8 -22 6 -35 21 -19 31 -20 31 -3 0 13 -56
160 -86 225 -29 62 -40 139 -25 175 22 55 23 73 6 90 -22 23 -36 21 -130 -17z"/>
<path d="M1750 4050 c0 -5 5 -10 11 -10 5 0 7 5 4 10 -3 6 -8 10 -11 10 -2 0
-4 -4 -4 -10z"/>
<path d="M1474 4029 c-32 -15 -41 -26 -41 -45 0 -28 27 -33 47 -9 7 8 21 15
31 15 14 0 19 7 19 30 0 35 -2 35 -56 9z m36 -3 c0 -3 -4 -8 -10 -11 -5 -3
-10 -1 -10 4 0 6 5 11 10 11 6 0 10 -2 10 -4z"/>
<path d="M1700 4040 c0 -5 4 -10 9 -10 6 0 13 5 16 10 3 6 -1 10 -9 10 -9 0
-16 -4 -16 -10z"/>
<path d="M1730 4005 c-10 -12 -9 -16 5 -21 19 -8 40 9 31 25 -10 15 -21 14
-36 -4z"/>
<path d="M1697 3991 c-3 -12 -1 -21 3 -21 14 0 19 15 11 29 -6 9 -10 7 -14 -8z"/>
<path d="M3835 3989 c-27 -11 -52 -25 -53 -30 -2 -5 -8 -7 -12 -4 -14 9 -140
-46 -150 -64 -14 -28 10 -64 49 -72 20 -4 53 -26 85 -57 487 -473 478 -464
488 -449 9 15 17 7 21 -21 5 -34 75 -101 98 -95 23 6 24 19 3 31 -29 16 -12
46 29 53 36 6 37 5 37 -23 0 -26 3 -29 23 -23 12 4 26 11 31 15 13 13 -1 41
-24 47 -17 5 -19 11 -14 39 4 24 -3 56 -27 119 l-32 86 -174 168 c-133 129
-179 168 -194 164 -13 -4 -19 0 -19 11 0 11 5 15 13 10 6 -4 -15 21 -48 55
-33 33 -64 61 -70 60 -5 0 -32 -9 -60 -20z m200 -319 c3 -6 -1 -13 -10 -16
-19 -8 -30 0 -20 15 8 14 22 14 30 1z m173 -122 c9 -9 18 -9 37 0 14 7 27 12
28 12 1 0 1 -18 0 -41 -1 -47 -12 -61 -49 -65 -20 -2 -24 0 -15 9 18 18 13 25
-21 32 -85 19 -86 53 -2 64 5 0 15 -4 22 -11z"/>
<path d="M4201 3516 c-9 -10 -5 -13 18 -12 18 1 27 5 24 14 -7 16 -28 15 -42
-2z"/>
<path d="M6260 3990 c0 -5 7 -10 16 -10 10 0 14 -6 10 -15 -3 -8 -1 -15 3 -15
18 0 41 12 41 22 0 6 -7 8 -15 4 -9 -3 -15 0 -15 9 0 8 -9 15 -20 15 -11 0
-20 -4 -20 -10z"/>
<path d="M1985 3980 c-3 -5 1 -10 10 -10 9 0 13 5 10 10 -3 6 -8 10 -10 10 -2
0 -7 -4 -10 -10z"/>
<path d="M1644 3969 c-3 -6 -2 -15 3 -20 5 -5 9 -1 10 11 2 22 -2 25 -13 9z"/>
<path d="M1958 3953 c-16 -4 -34 -33 -20 -33 12 0 48 28 42 32 -3 3 -12 3 -22
1z"/>
<path d="M1604 3899 c-3 -6 3 -21 15 -32 11 -12 21 -16 21 -10 0 7 7 10 15 7
11 -5 13 -2 9 10 -3 9 -10 14 -14 11 -4 -3 -10 2 -14 10 -6 18 -22 20 -32 4z
m24 -24 c-3 -3 -9 2 -12 12 -6 14 -5 15 5 6 7 -7 10 -15 7 -18z"/>
<path d="M1952 3903 c-6 -2 -10 -9 -7 -13 7 -11 35 -2 35 11 0 10 -8 10 -28 2z"/>
<path d="M1552 3893 c-17 -7 -5 -23 19 -23 10 0 19 7 19 15 0 15 -14 18 -38 8z"/>
<path d="M8091 3787 c-7 -7 -7 -14 0 -23 8 -10 19 -9 55 4 24 9 44 19 44 22 0
10 -88 8 -99 -3z"/>
<path d="M3144 3740 c-16 -16 13 -90 35 -90 9 0 23 -6 32 -13 9 -7 66 -140
126 -297 61 -156 116 -286 122 -288 7 -2 15 5 18 17 6 25 18 27 27 4 4 -9 -2
-25 -14 -38 -24 -25 -25 -35 -5 -35 18 0 17 1 20 -68 2 -76 14 -81 64 -27 41
45 68 93 74 134 2 11 6 24 10 27 4 4 7 39 7 78 0 63 -4 92 -25 184 -4 17 -10
22 -25 17 -19 -6 -20 1 -6 42 5 17 -4 43 -34 101 -50 97 -120 176 -194 221
-48 29 -67 34 -138 38 -57 3 -87 1 -94 -7z m433 -392 c-3 -8 -6 -5 -6 6 -1 11
2 17 5 13 3 -3 4 -12 1 -19z"/>
<path d="M3038 3681 c-60 -53 -98 -138 -105 -237 -5 -68 -4 -77 17 -99 13 -14
29 -25 36 -25 6 0 17 -7 24 -15 7 -9 19 -14 26 -11 16 6 34 -23 34 -53 0 -17
-6 -21 -35 -21 -24 0 -39 6 -47 20 -20 31 -31 23 -23 -17 8 -44 63 -160 108
-225 23 -35 37 -46 49 -42 10 3 18 1 18 -5 0 -19 18 -12 23 10 13 48 36 4 40
-75 3 -49 193 -89 243 -51 10 8 17 15 14 15 -3 1 -14 3 -25 5 -11 2 -21 9 -23
14 -2 6 -12 11 -22 11 -16 0 -38 45 -27 57 3 2 -23 75 -57 161 -61 154 -62
157 -90 154 -25 -3 -27 -2 -16 17 6 12 15 19 21 16 17 -11 9 22 -11 48 -11 14
-20 30 -20 37 0 21 -44 -1 -77 -39 -31 -34 -34 -35 -47 -17 -9 11 -20 15 -28
10 -7 -4 -2 5 12 20 13 14 29 25 36 22 7 -3 20 4 29 14 10 11 21 17 26 15 4
-3 10 -1 14 5 4 6 11 8 16 5 16 -10 10 15 -23 103 -31 81 -32 85 -15 113 15
28 15 32 0 64 -9 19 -24 35 -33 35 -10 0 -37 -18 -62 -39z"/>
<path d="M3760 3707 c0 -8 9 -22 20 -32 13 -11 18 -25 14 -37 -3 -10 23 -92
62 -193 53 -139 71 -175 86 -175 13 0 18 -7 18 -26 0 -14 4 -23 10 -19 6 3 10
15 10 26 0 10 5 19 10 19 6 0 10 -6 10 -13 0 -8 11 -24 25 -37 28 -27 32 -40
10 -40 -8 0 -15 -6 -15 -14 0 -8 -9 -18 -20 -21 -11 -3 -23 -17 -26 -30 -3
-13 -12 -29 -20 -36 -37 -30 0 -38 62 -13 96 39 114 49 120 66 9 31 -6 58 -36
64 -51 11 -78 54 -153 245 -68 173 -75 187 -123 232 -54 50 -64 55 -64 34z"/>
<path d="M6918 3597 c-32 -12 -58 -26 -58 -30 0 -5 4 -6 10 -2 5 3 16 -8 25
-24 17 -35 10 -43 -42 -46 -30 -2 -35 1 -40 27 -6 31 -10 31 -82 0 -20 -8 -30
-17 -23 -19 24 -9 13 -30 -14 -25 -19 3 -22 7 -12 14 9 7 8 8 -7 5 -11 -2 -19
-8 -18 -14 1 -6 -4 -14 -12 -17 -8 -3 -15 -1 -15 3 0 16 0 16 -243 -79 -59
-23 -110 -46 -113 -51 -3 -5 -10 -7 -15 -3 -5 3 -21 -2 -34 -10 -14 -9 -25
-14 -25 -10 0 4 -7 0 -16 -7 -9 -7 -28 -15 -42 -17 -14 -2 -38 -10 -53 -18
-15 -7 -35 -14 -44 -14 -8 0 -24 -9 -35 -20 -11 -11 -20 -16 -20 -10 0 5 -15
3 -32 -5 -25 -10 -32 -19 -30 -36 2 -16 -2 -20 -14 -15 -8 3 -18 6 -20 6 -3 0
-2 5 1 10 8 13 1 13 -41 -5 -31 -13 -33 -16 -22 -34 9 -15 9 -24 2 -31 -8 -8
-13 -3 -17 19 -6 29 -8 30 -37 20 -16 -6 -30 -15 -30 -21 0 -6 -6 -8 -13 -5
-8 3 -20 1 -27 -3 -11 -7 -11 -11 -1 -24 19 -22 6 -46 -24 -46 -14 0 -25 -3
-25 -8 0 -4 -15 -16 -34 -26 -18 -10 -39 -29 -46 -42 -7 -13 -16 -21 -21 -19
-4 3 -20 0 -35 -5 -40 -16 -74 -5 -73 23 0 12 3 17 5 10 3 -7 12 -9 20 -6 8 3
14 0 14 -6 0 -6 5 -11 11 -11 18 0 -8 27 -31 33 -13 3 -27 -5 -44 -28 -14 -18
-23 -35 -20 -38 3 -3 -12 -1 -33 4 -21 5 -42 9 -47 9 -6 0 -5 5 1 11 8 8 17 8
32 -1 18 -9 25 -7 51 21 16 18 27 35 25 37 -3 3 -22 -2 -42 -11 -21 -8 -65
-25 -97 -38 -33 -13 -54 -25 -48 -27 8 -2 9 -9 2 -23 -8 -15 -7 -17 5 -13 11
5 13 2 9 -10 -6 -15 -22 -20 -51 -17 -7 1 -10 -5 -7 -13 4 -9 26 -17 62 -21
66 -8 87 -13 54 -14 -13 -1 -20 -5 -17 -11 4 -6 11 -7 17 -4 7 4 8 2 4 -4 -11
-18 -34 -14 -40 6 -2 9 -4 -2 -3 -25 1 -43 -8 -69 -10 -30 -3 27 -33 51 -47
37 -14 -14 -26 -12 -20 3 3 9 -3 13 -17 13 -12 -1 -24 6 -27 14 -4 12 -2 13 9
3 7 -7 17 -13 21 -13 11 0 5 50 -8 58 -15 11 -14 29 2 29 7 0 14 -4 14 -9 0
-4 5 -8 10 -8 6 0 10 9 10 20 0 24 -17 25 -71 3 -34 -13 -38 -18 -25 -25 14
-8 15 -12 4 -26 -11 -13 -11 -15 4 -9 12 4 16 1 15 -14 -1 -18 -17 -28 -17
-10 0 13 -40 21 -41 8 0 -7 -5 0 -10 15 -9 25 -13 26 -42 16 -55 -17 -119 -49
-113 -55 3 -3 12 -1 20 6 11 9 15 8 20 -6 4 -10 4 -15 1 -11 -4 3 -19 2 -35
-2 -23 -7 -28 -5 -23 6 6 16 -13 19 -22 4 -3 -5 -13 -10 -21 -10 -8 0 -33 -9
-57 -19 -23 -10 -71 -30 -107 -44 -36 -15 -59 -26 -52 -27 6 0 12 -5 12 -10 0
-6 -6 -9 -12 -8 -7 2 -12 -3 -10 -10 1 -8 -2 -11 -7 -7 -6 3 -7 13 -4 22 5 12
2 15 -8 11 -84 -33 -99 -42 -89 -48 6 -4 10 -11 9 -16 -3 -20 2 -28 10 -16 7
11 12 10 27 -6 11 -10 26 -21 34 -24 9 -3 2 -8 -17 -12 -17 -4 -37 -14 -43
-22 -10 -11 -8 -15 10 -22 19 -7 20 -10 7 -15 -8 -3 -21 1 -27 8 -7 8 -16 13
-20 10 -5 -3 -6 4 -3 15 3 11 11 20 18 20 7 0 19 7 26 17 13 15 12 15 -8 5
-12 -7 -34 -12 -50 -12 -15 0 -37 -7 -47 -15 -29 -22 -36 -19 -36 20 0 34 -1
35 -22 24 -13 -7 -32 -14 -43 -15 -45 -5 -80 -29 -81 -54 -1 -14 3 -28 8 -31
6 -4 6 -9 -1 -13 -6 -4 -11 -3 -11 3 0 7 -8 7 -26 1 -25 -10 -43 -4 -64 21 -3
3 -18 1 -33 -6 -27 -11 -28 -13 -12 -29 10 -10 25 -14 36 -11 21 7 28 -18 8
-30 -5 -4 -8 -12 -6 -18 11 -33 -55 -43 -132 -18 -19 6 -37 9 -40 6 -4 -2 -8
5 -8 16 -1 10 5 19 13 19 8 0 14 5 14 11 0 7 -9 6 -23 -4 -13 -8 -46 -22 -73
-30 -27 -9 -103 -36 -169 -62 -66 -26 -167 -65 -225 -87 -81 -30 -106 -44
-106 -58 0 -15 11 -20 56 -26 30 -4 59 -7 63 -5 5 1 11 -8 14 -19 3 -11 9 -20
14 -20 19 0 8 -50 -16 -75 -14 -14 -29 -25 -34 -25 -4 0 -17 -13 -29 -29 -30
-41 -83 -65 -126 -57 -38 7 -46 1 -51 -43 l-4 -28 183 71 c148 57 180 73 168
82 -8 6 -17 19 -18 29 -2 14 3 16 28 13 19 -3 32 0 35 9 3 7 9 10 14 7 6 -3
21 1 34 10 30 20 46 20 39 1 -9 -24 23 -29 52 -9 64 45 80 53 109 52 46 -2
107 21 101 38 -3 8 -1 14 4 14 6 0 10 5 10 10 0 6 -7 10 -16 10 -11 0 -14 5
-10 16 5 13 4 14 -7 6 -7 -6 -12 -25 -11 -42 1 -17 0 -29 -3 -27 -2 3 -17 2
-32 -3 -23 -6 -27 -5 -26 11 1 10 4 22 8 25 4 4 7 17 7 28 1 24 22 56 38 56 7
0 9 8 5 18 -3 9 -3 14 1 10 5 -4 18 -3 30 1 11 5 30 5 41 0 19 -7 19 -8 1 -8
-19 -1 -19 -2 1 -23 32 -36 39 -53 20 -45 -12 5 -17 1 -17 -12 0 -11 -3 -26
-6 -34 -4 -10 22 -4 86 21 62 24 89 40 86 49 -3 7 -1 13 3 13 5 0 11 -4 13
-10 2 -8 273 88 363 129 11 5 41 16 68 26 26 9 47 21 47 26 0 5 12 9 28 10
l27 1 -27 10 c-16 5 -28 17 -28 26 1 15 2 15 15 -1 9 -13 20 -17 36 -12 16 5
19 4 14 -6 -6 -9 -3 -11 9 -6 10 4 20 7 22 7 3 0 3 4 -1 9 -3 5 0 13 6 17 6 3
15 0 20 -7 6 -11 11 -11 21 -1 6 6 8 12 2 12 -5 0 -10 10 -11 23 0 12 1 17 4
10 8 -20 31 -3 27 20 -2 12 -2 17 2 10 4 -9 11 -7 27 7 11 11 23 17 26 14 3
-3 -1 -9 -8 -13 -10 -6 -10 -10 -1 -16 8 -5 6 -11 -7 -20 -10 -7 -15 -17 -11
-21 4 -4 14 -2 21 4 8 7 16 10 19 7 3 -3 11 1 18 10 10 12 10 15 0 15 -9 0 -8
6 4 19 10 11 15 24 12 30 -4 5 1 14 10 19 14 8 12 10 -10 14 -21 4 -26 2 -21
-9 3 -10 1 -13 -9 -10 -8 3 -17 1 -19 -6 -2 -7 -7 -9 -11 -5 -4 3 -3 15 3 27
9 16 8 22 -6 30 -10 6 -13 11 -7 11 5 0 15 -5 22 -12 9 -9 15 -9 24 0 15 15
29 15 26 0 -2 -6 8 -14 22 -18 14 -4 24 -12 22 -18 -1 -7 9 -12 23 -12 13 0
30 -6 37 -14 7 -8 19 -10 28 -6 8 5 35 14 60 22 34 10 39 14 23 16 -13 2 -23
10 -23 17 0 8 -9 16 -19 20 -11 3 -25 13 -32 21 -8 10 1 7 24 -6 20 -12 40
-26 43 -31 9 -15 26 -10 20 7 -3 8 -2 12 4 9 6 -3 10 -2 10 4 0 5 -6 12 -12
14 -9 4 -10 6 -1 6 6 1 18 -6 27 -14 13 -13 15 -13 20 3 3 9 4 5 2 -10 -2 -16
-2 -28 -1 -28 10 0 41 38 38 47 -2 6 1 14 6 18 6 3 8 0 5 -8 -9 -23 15 -31 37
-12 18 18 18 18 -6 43 -14 14 -25 30 -24 36 0 7 2 8 5 0 2 -6 18 -8 34 -6 31
4 35 -1 30 -42 -1 -11 3 -16 12 -14 7 3 12 13 12 22 -1 9 3 15 10 13 6 -3 10
-10 9 -16 -2 -6 -1 -11 1 -11 12 0 67 28 67 33 -3 26 1 30 12 16 11 -15 24
-12 137 33 69 27 127 54 128 59 2 5 8 6 14 3 11 -7 28 13 28 34 0 6 -8 12 -17
12 -17 1 -17 2 0 15 16 12 21 11 38 -6 11 -11 17 -25 13 -31 -5 -8 -1 -9 12
-4 10 5 27 11 37 13 18 6 24 23 7 23 -5 0 -10 5 -10 12 0 6 3 8 6 5 4 -3 15
-2 26 4 22 12 47 1 27 -12 -9 -6 -10 -9 -2 -9 6 0 18 6 25 13 7 6 19 12 26 13
34 3 36 4 25 15 -6 6 -9 18 -6 26 5 12 8 12 27 -1 23 -15 72 -11 83 7 3 5 1 7
-5 3 -6 -3 -13 -2 -16 3 -4 6 6 8 23 6 18 -2 62 9 113 30 46 19 78 34 71 35
-7 0 -10 7 -7 15 4 8 1 15 -5 15 -14 0 -8 43 7 48 7 2 14 -13 18 -37 l6 -40
62 23 c33 13 95 36 136 51 41 15 80 34 86 41 6 8 14 11 17 8 5 -6 101 27 187
64 19 9 40 17 45 18 6 1 23 7 40 14 22 8 26 13 16 20 -9 5 -2 8 21 7 20 0 64
11 99 25 35 14 85 34 111 44 25 10 45 22 42 25 -2 4 2 7 9 6 38 -1 57 5 57 17
0 15 -21 26 -50 26 -11 0 -35 16 -54 36 -29 30 -37 34 -42 20 -4 -12 -13 -14
-33 -10 -14 4 -39 6 -55 5 -29 0 -66 22 -66 41 0 4 8 8 17 8 13 0 14 3 5 12
-8 8 -15 8 -26 -1 -11 -9 -14 -8 -12 5 2 25 -12 25 -76 1z m151 -158 c17 10
20 9 15 -4 -4 -8 -12 -15 -19 -15 -7 0 -15 -6 -17 -12 -3 -7 -10 3 -16 22 -10
31 -10 33 2 17 12 -15 18 -16 35 -8z m-169 -14 c0 -27 -7 -30 -30 -15 -10 6
-11 10 -2 10 6 0 12 7 12 15 0 8 5 15 10 15 6 0 10 -11 10 -25z m-360 -1 c0
-8 -5 -12 -10 -9 -6 4 -8 11 -5 16 9 14 15 11 15 -7z m-30 -8 c0 -3 -4 -8 -10
-11 -5 -3 -10 -1 -10 4 0 6 5 11 10 11 6 0 10 -2 10 -4z m160 -10 c0 -2 -7 -9
-15 -16 -13 -11 -14 -10 -9 4 5 14 24 23 24 12z m-100 -16 c0 -5 -4 -10 -9
-10 -6 0 -13 5 -16 10 -3 6 1 10 9 10 9 0 16 -4 16 -10z m129 -11 c-11 -6 -11
-11 -2 -20 9 -9 9 -15 -2 -25 -7 -8 -18 -14 -24 -14 -14 0 -14 -27 -1 -35 5
-3 7 0 4 8 -6 17 22 31 32 16 3 -6 -2 -18 -13 -28 -15 -15 -21 -15 -31 -5 -15
16 -15 37 -1 51 6 6 9 19 7 29 -4 20 21 46 35 37 5 -3 3 -9 -4 -14z m-212 -22
c-1 -6 8 -13 20 -15 12 -2 27 -10 35 -19 12 -15 11 -15 -10 -4 -12 6 -26 10
-31 7 -4 -3 -14 6 -21 19 -17 32 -25 31 -46 -5 -18 -29 -42 -46 -52 -35 -3 3
0 5 6 5 7 0 12 7 12 16 0 9 5 12 12 8 8 -5 9 -2 5 10 -4 10 -3 15 3 11 5 -3
14 4 20 15 9 16 15 18 30 10 11 -6 19 -16 17 -23z m-140 -12 c0 -8 -4 -15 -9
-15 -10 0 -11 14 -1 23 9 10 10 9 10 -8z m603 -15 c0 -5 -2 -10 -4 -10 -2 0
-12 -3 -22 -7 -16 -6 -17 -5 -4 10 17 19 30 22 30 7z m-643 -15 c-11 -7 -26
-11 -34 -8 -12 5 -14 1 -8 -15 4 -14 2 -22 -5 -22 -6 0 -8 5 -5 10 4 6 -6 11
-22 11 -23 2 -24 2 -5 6 12 2 22 8 22 13 0 8 26 16 60 18 11 1 11 -2 -3 -13z
m213 -22 c0 -14 -26 -18 -34 -4 -7 11 0 18 19 18 8 0 15 -6 15 -14z m-105 -3
c-3 -5 -12 -10 -18 -10 -7 0 -6 4 3 10 19 12 23 12 15 0z m35 6 c0 -3 -4 -8
-10 -11 -5 -3 -10 -1 -10 4 0 6 5 11 10 11 6 0 10 -2 10 -4z m136 -12 c-23
-16 -20 -34 7 -35 20 0 20 -1 3 -8 -12 -4 -31 -2 -48 6 -34 17 -37 27 -5 18
20 -6 21 -5 5 8 -25 20 -23 23 18 23 30 0 33 -2 20 -12z m-240 -1 c-10 -11
-37 -12 -30 -2 3 5 12 9 21 9 9 0 13 -3 9 -7z m-166 -47 c0 -5 -9 -1 -20 9
-11 10 -17 22 -14 27 6 9 33 -20 34 -36z m50 34 c0 -5 -4 -10 -10 -10 -5 0
-10 5 -10 10 0 6 5 10 10 10 6 0 10 -4 10 -10z m79 -22 c5 -15 4 -26 -3 -30
-19 -13 -29 -9 -17 6 6 7 9 21 5 30 -3 9 -3 16 0 16 4 0 10 -10 15 -22z m167
-3 c15 0 29 -7 32 -15 5 -13 3 -13 -13 0 -16 13 -19 13 -33 -8 -8 -12 -21 -22
-29 -22 -9 0 -13 -6 -9 -15 3 -8 1 -15 -4 -15 -19 0 -10 37 13 48 12 6 16 11
10 11 -7 1 -13 11 -13 24 0 18 2 19 10 7 5 -8 21 -15 36 -15z m274 21 c0 -2
-7 -6 -15 -10 -8 -3 -15 -1 -15 4 0 6 7 10 15 10 8 0 15 -2 15 -4z m44 -8 c-3
-4 -9 -8 -15 -8 -5 0 -9 4 -9 8 0 5 7 9 15 9 8 0 12 -4 9 -9z m-451 -25 c5
-26 4 -26 -9 -8 -16 22 -18 35 -5 35 5 0 11 -12 14 -27z m-139 1 c3 -8 2 -12
-4 -9 -6 3 -10 10 -10 16 0 14 7 11 14 -7z m497 -7 c-10 -9 -11 -8 -5 6 3 10
9 15 12 12 3 -3 0 -11 -7 -18z m-630 -14 c-6 -11 -4 -21 6 -31 12 -12 12 -16
1 -23 -21 -13 -32 -10 -19 5 7 8 8 15 2 18 -5 1 -7 15 -4 30 3 15 9 25 14 22
6 -3 6 -12 0 -21z m419 13 c0 -3 -4 -8 -10 -11 -5 -3 -10 -1 -10 4 0 6 5 11
10 11 6 0 10 -2 10 -4z m86 -14 c11 2 19 -3 19 -11 0 -8 -10 -15 -22 -16 -14
-1 -23 4 -23 12 0 11 -4 11 -22 2 -23 -12 -23 -12 -4 10 13 14 22 18 26 10 4
-6 16 -9 26 -7z m51 -14 c-3 -8 -6 -5 -6 6 -1 11 2 17 5 13 3 -3 4 -12 1 -19z
m-647 -7 c0 -5 -8 -17 -17 -28 -10 -10 -14 -13 -10 -6 5 6 6 16 3 22 -5 8 2
14 22 20 1 1 2 -3 2 -8z m307 -11 c-1 -11 -5 -20 -9 -20 -3 0 -6 9 -5 20 1 11
5 20 9 20 3 0 6 -9 5 -20z m113 16 c0 -3 -4 -8 -10 -11 -5 -3 -10 -1 -10 4 0
6 5 11 10 11 6 0 10 -2 10 -4z m-240 -28 c0 -11 -12 -10 -30 2 -12 7 -10 9 8
7 12 0 22 -5 22 -9z m-150 -13 c0 -9 -6 -12 -16 -8 -13 5 -13 7 -2 14 17 11
18 11 18 -6z m490 -3 c0 -5 -7 -9 -15 -9 -8 0 -15 4 -15 9 0 4 7 8 15 8 8 0
15 -4 15 -8z m-583 -23 c-25 -15 -11 -29 22 -23 16 4 32 1 35 -5 4 -6 12 -9
17 -6 11 8 11 -6 0 -24 -5 -8 -21 -15 -34 -15 -14 -1 -23 2 -21 6 10 15 -8 31
-18 17 -7 -10 -11 -11 -14 -2 -3 7 -14 2 -30 -13 -27 -28 -30 -36 -10 -28 10
4 12 -2 8 -22 -4 -21 -2 -25 9 -20 8 4 3 -2 -10 -13 -13 -12 -31 -20 -40 -20
-14 1 -13 2 2 6 9 2 17 8 18 11 0 4 2 14 4 23 1 8 -4 24 -12 35 -14 19 -15 18
-37 -8 -12 -16 -26 -28 -30 -28 -5 0 -3 7 4 15 6 8 9 18 6 23 -3 5 9 13 27 17
17 4 35 9 40 10 4 1 10 3 15 4 4 1 1 5 -7 10 -20 13 -3 33 21 25 15 -4 18 -3
13 6 -7 12 11 30 30 30 6 -1 2 -5 -8 -11z m303 1 c0 -5 -5 -10 -11 -10 -5 0
-7 5 -4 10 3 6 8 10 11 10 2 0 4 -4 4 -10z m60 0 c0 -5 -4 -10 -10 -10 -5 0
-10 5 -10 10 0 6 5 10 10 10 6 0 10 -4 10 -10z m-166 -16 c5 -13 3 -14 -6 -7
-7 6 -20 13 -28 16 -10 4 -8 6 6 6 12 1 25 -6 28 -15z m46 12 c0 -2 -7 -9 -15
-16 -12 -10 -15 -10 -15 4 0 9 7 16 15 16 8 0 15 -2 15 -4z m-410 -16 c12 -8
11 -10 -7 -10 -12 0 -25 5 -28 10 -8 13 15 13 35 0z m60 -10 c0 -5 -5 -12 -11
-16 -14 -8 -33 11 -25 25 7 11 36 4 36 -9z m412 -7 c12 -15 11 -15 -9 -4 -13
6 -23 8 -23 3 0 -4 -9 -8 -19 -8 -13 0 -17 4 -11 11 14 17 47 15 62 -2z m85
-8 c-4 -8 -13 -15 -22 -15 -13 0 -12 3 3 18 19 21 27 20 19 -3z m-231 -4 l25
-19 -31 -7 c-16 -4 -30 -13 -30 -21 0 -8 -8 -14 -17 -13 -11 0 -13 3 -5 6 14
6 16 33 2 33 -17 0 -11 28 8 33 9 3 19 5 20 6 2 0 15 -8 28 -18z m64 -11 c0
-11 -2 -20 -4 -20 -2 0 -6 9 -9 20 -3 11 -1 20 4 20 5 0 9 -9 9 -20z m67 -6
c-3 -3 -12 -4 -19 -1 -8 3 -5 6 6 6 11 1 17 -2 13 -5z m-80 -46 c-3 -8 -6 -5
-6 6 -1 11 2 17 5 13 3 -3 4 -12 1 -19z m-451 -23 c-3 -8 -1 -15 3 -15 5 0 8
-8 7 -17 -2 -10 4 -28 12 -40 12 -19 12 -23 1 -23 -11 0 -11 -2 1 -10 12 -8
10 -10 -8 -10 -15 0 -21 4 -17 13 4 6 0 3 -9 -7 -8 -10 -17 -23 -18 -28 -4
-11 -38 1 -38 14 0 5 4 7 9 4 4 -3 16 3 25 13 16 18 15 19 -10 24 -15 3 -34 3
-41 0 -17 -7 -17 -33 0 -34 10 0 10 -2 0 -6 -15 -5 -18 -24 -4 -20 5 1 9 -2
10 -8 1 -5 -4 -10 -9 -10 -6 0 -15 -7 -20 -15 -5 -8 -10 -10 -10 -4 0 6 3 14
7 18 4 3 7 15 8 26 2 26 -22 26 -30 0 -3 -11 -11 -20 -18 -20 -8 0 -8 3 1 12
28 28 -1 46 -38 23 -6 -3 -10 3 -10 15 0 12 4 18 10 15 6 -4 18 -1 27 7 14 11
16 11 8 -1 -6 -10 -4 -12 4 -7 7 5 10 14 8 20 -3 7 -1 19 4 27 7 11 9 10 10
-6 1 -11 1 -26 0 -32 -1 -7 2 -13 7 -13 4 0 14 6 21 13 6 6 31 12 54 12 39 0
42 2 39 25 -2 14 -8 30 -13 37 -7 7 -5 13 3 16 20 8 21 8 14 -8z m51 -37 c-3
-8 -6 -5 -6 6 -1 11 2 17 5 13 3 -3 4 -12 1 -19z m-247 -28 c0 -5 -2 -10 -4
-10 -3 0 -8 5 -11 10 -3 6 -1 10 4 10 6 0 11 -4 11 -10z m250 6 c0 -3 -4 -8
-10 -11 -5 -3 -10 -1 -10 4 0 6 5 11 10 11 6 0 10 -2 10 -4z m-280 -27 c0 -6
-4 -7 -10 -4 -5 3 -10 11 -10 16 0 6 5 7 10 4 6 -3 10 -11 10 -16z m340 -4 c0
-8 -4 -15 -9 -15 -13 0 -22 16 -14 24 11 11 23 6 23 -9z m-485 -45 c-3 -5 -12
-10 -18 -10 -7 0 -6 4 3 10 19 12 23 12 15 0z m175 -15 c-7 -8 -16 -12 -21 -9
-13 8 -1 24 18 24 13 0 13 -3 3 -15z m0 -57 c0 -13 -23 -5 -28 10 -2 7 2 10
12 6 9 -3 16 -11 16 -16z m-532 -11 c8 -10 7 -13 -7 -14 -10 -1 -18 5 -18 13
0 17 11 18 25 1z m196 -2 c15 -11 16 -15 5 -15 -8 0 -20 5 -27 12 -9 9 -12 8
-12 -5 0 -9 5 -17 12 -17 13 0 2 -14 -13 -16 -5 -1 -12 -2 -15 -3 -4 0 -1 -7
6 -15 10 -13 7 -13 -18 -4 -33 13 -33 43 0 35 13 -4 18 -1 15 8 -5 12 10 35
23 35 3 0 14 -7 24 -15z m-269 -25 c3 -5 1 -10 -4 -10 -6 0 -11 5 -11 10 0 6
2 10 4 10 3 0 8 -4 11 -10z m330 0 c3 -5 1 -10 -4 -10 -6 0 -11 5 -11 10 0 6
2 10 4 10 3 0 8 -4 11 -10z m-371 -12 c-4 -6 1 -17 11 -25 14 -9 15 -13 4 -13
-8 0 -20 4 -28 9 -12 8 -12 12 -2 25 16 19 26 21 15 4z m311 -18 c-4 -12 -9
-19 -12 -17 -3 3 -2 15 2 27 4 12 9 19 12 17 3 -3 2 -15 -2 -27z m-360 -10 c3
-5 -1 -10 -10 -10 -9 0 -13 5 -10 10 3 6 8 10 10 10 2 0 7 -4 10 -10z m215 0
c0 -5 -4 -10 -10 -10 -5 0 -10 5 -10 10 0 6 5 10 10 10 6 0 10 -4 10 -10z
m-320 -34 c-14 -14 -22 -2 -14 18 5 14 9 15 15 4 4 -7 4 -17 -1 -22z m216 -2
c-6 -22 -4 -25 14 -19 12 4 20 2 20 -5 0 -6 -4 -8 -10 -5 -5 3 -10 2 -10 -4 0
-5 8 -12 18 -15 9 -3 4 -3 -13 0 -16 3 -35 5 -42 6 -7 1 -9 6 -5 12 4 6 7 13
8 16 2 13 17 40 21 40 3 0 2 -12 -1 -26z m314 -13 c0 -5 -7 -11 -15 -15 -9 -3
-15 0 -15 9 0 8 7 15 15 15 8 0 15 -4 15 -9z m-553 -26 c-15 -16 -19 -13 -11
9 3 9 10 13 15 10 5 -3 3 -11 -4 -19z m59 10 c14 -13 13 -15 -6 -15 -12 0 -19
4 -16 9 4 5 0 12 -6 14 -10 4 -10 6 0 6 7 1 20 -6 28 -14z m54 11 c0 -2 -8
-10 -17 -17 -16 -13 -17 -12 -4 4 13 16 21 21 21 13z m75 -26 c3 -5 1 -10 -4
-10 -6 0 -11 5 -11 10 0 6 2 10 4 10 3 0 8 -4 11 -10z m-55 -32 c0 -4 -7 -5
-15 -2 -8 4 -15 2 -15 -4 0 -5 10 -9 23 -8 13 1 21 7 19 16 -1 10 3 8 13 -4
13 -17 15 -18 15 -3 0 9 5 17 10 17 7 0 7 -6 2 -17 -5 -10 -7 -25 -4 -33 4
-12 2 -13 -9 -4 -22 17 -59 15 -59 -3 0 -13 -3 -13 -15 -3 -8 7 -12 17 -9 22
13 20 -20 27 -41 9 -27 -24 -75 -53 -75 -46 0 13 28 34 35 27 5 -4 6 0 2 10
-7 21 3 31 18 18 8 -7 18 -4 30 10 14 15 21 17 31 9 11 -9 15 -7 20 6 5 13 9
14 15 3 5 -7 9 -16 9 -20z m-130 8 c0 -11 -19 -15 -25 -6 -3 5 1 10 9 10 9 0
16 -2 16 -4z m237 -22 c-3 -3 -12 -4 -19 -1 -8 3 -5 6 6 6 11 1 17 -2 13 -5z
m-409 -39 c-3 -3 -9 2 -12 12 -6 14 -5 15 5 6 7 -7 10 -15 7 -18z m-58 -15 c0
-5 -4 -10 -10 -10 -5 0 -10 5 -10 10 0 6 5 10 10 10 6 0 10 -4 10 -10z m70
-10 c0 -5 -5 -10 -11 -10 -5 0 -7 5 -4 10 3 6 8 10 11 10 2 0 4 -4 4 -10z m27
-20 c-3 -11 -1 -20 4 -20 4 0 6 -7 2 -15 -8 -22 -16 -10 -19 25 -1 17 3 30 8
30 6 0 8 -9 5 -20z m101 -5 c-3 -3 -9 2 -12 12 -6 14 -5 15 5 6 7 -7 10 -15 7
-18z m-358 -36 c0 -11 -4 -18 -10 -14 -5 3 -7 12 -3 20 7 21 13 19 13 -6z
m170 0 c0 -11 -4 -18 -10 -14 -5 3 -7 12 -3 20 7 21 13 19 13 -6z m190 11 c0
-5 -4 -10 -10 -10 -5 0 -10 5 -10 10 0 6 5 10 10 10 6 0 10 -4 10 -10z m-150
-92 c-12 -5 -25 -6 -28 -3 -3 3 0 5 7 5 7 0 10 4 7 9 -4 5 4 7 16 3 l22 -5
-24 -9z m-375 2 c3 -5 -1 -10 -10 -10 -9 0 -13 5 -10 10 3 6 8 10 10 10 2 0 7
-4 10 -10z m79 -25 c11 -8 15 -15 9 -15 -7 0 -14 4 -18 10 -3 5 -13 6 -22 3
-11 -4 -14 -3 -9 5 9 15 17 15 40 -3z m186 1 c0 -3 -4 -8 -10 -11 -5 -3 -10
-1 -10 4 0 6 5 11 10 11 6 0 10 -2 10 -4z m-125 -66 c-3 -5 -11 -10 -16 -10
-6 0 -7 5 -4 10 3 6 11 10 16 10 6 0 7 -4 4 -10z"/>
<path d="M5940 3085 c7 -9 15 -13 17 -11 7 7 -7 26 -19 26 -6 0 -6 -6 2 -15z"/>
<path d="M2596 3524 c-9 -8 -16 -24 -16 -35 0 -17 -8 -19 -75 -19 -82 0 -84
-2 -64 -59 7 -20 18 -31 30 -31 52 0 118 -52 196 -152 48 -63 83 -76 103 -37
9 17 1 46 -46 167 -51 132 -80 182 -104 182 -5 0 -16 -7 -24 -16z m14 -109
c24 -29 -3 -36 -35 -10 l-30 24 26 1 c15 0 32 -7 39 -15z m13 -73 c4 9 6 9 6
1 1 -6 -3 -14 -9 -18 -10 -6 -50 15 -50 28 0 4 11 0 24 -8 19 -13 25 -13 29
-3z"/>
<path d="M2372 3442 c-7 -5 -10 -15 -7 -24 7 -17 -20 -44 -29 -29 -4 5 -2 12
4 16 5 3 10 11 10 17 0 7 -13 -1 -30 -17 -17 -16 -30 -39 -30 -53 0 -17 -4
-23 -15 -18 -8 3 -16 0 -17 -7 0 -7 -2 -17 -2 -23 -1 -6 -6 -18 -12 -25 -30
-37 -35 -205 -9 -301 18 -70 75 -208 85 -208 4 0 10 -10 14 -23 6 -26 122
-157 137 -157 6 0 7 5 3 11 -4 7 -1 10 6 7 8 -2 18 -13 24 -24 13 -23 28 -34
37 -28 4 2 10 0 14 -6 9 -14 138 -13 170 2 18 8 24 17 19 27 -3 9 -11 28 -16
44 -6 17 -17 27 -29 27 -46 0 -65 37 -219 438 -17 45 -35 80 -40 77 -5 -3 -7
-12 -4 -20 7 -18 -28 -36 -47 -24 -12 7 -12 9 1 9 13 0 13 1 0 10 -13 8 -13
11 -1 22 10 10 12 10 7 1 -4 -8 -1 -13 8 -13 9 0 16 -5 16 -12 0 -6 3 -8 6 -5
4 4 -1 18 -10 33 -10 14 -15 29 -11 32 3 4 10 0 14 -7 5 -7 11 -9 14 -4 9 14
-19 87 -34 92 -28 9 -27 26 6 59 33 34 33 34 17 73 -15 39 -26 46 -50 31z
m-97 -192 c-3 -5 -14 -10 -23 -10 -15 0 -15 2 -2 10 20 13 33 13 25 0z m61
-36 c-4 -12 -2 -15 9 -10 9 3 15 0 15 -9 0 -22 -28 -18 -40 4 -14 26 -13 31 6
31 11 0 14 -5 10 -16z m-55 -21 c13 -16 12 -17 -3 -4 -10 7 -18 15 -18 17 0 8
8 3 21 -13z m-36 -32 c-3 -5 -1 -12 5 -16 5 -3 10 -2 10 3 0 6 8 13 18 17 13
5 14 4 5 -6 -8 -8 -9 -18 -3 -30 15 -27 -29 -65 -45 -39 -3 6 3 10 14 10 31 0
34 16 6 34 -26 17 -33 36 -14 36 5 0 8 -4 4 -9z m115 -41 c-9 -6 -9 -9 1 -13
9 -3 10 -6 2 -6 -6 -1 -15 4 -18 9 -9 14 4 32 17 24 7 -4 6 -9 -2 -14z m51
-344 c-14 -16 -51 -28 -51 -16 0 5 12 13 28 18 36 14 36 14 23 -2z m124 -7 c4
-5 -1 -19 -10 -30 -14 -14 -29 -18 -69 -16 -36 1 -50 -2 -48 -10 1 -7 -2 -13
-8 -13 -19 0 -10 30 14 45 19 13 29 14 45 6 27 -15 34 -14 28 3 -9 22 36 36
48 15z m32 -93 c-5 -14 39 -36 69 -36 12 0 26 -4 29 -10 3 -5 1 -10 -5 -10 -6
0 -9 -4 -5 -9 3 -5 -4 -13 -15 -16 -17 -5 -19 -10 -9 -21 10 -12 5 -14 -32
-11 -52 3 -93 23 -86 42 3 7 1 17 -5 23 -8 8 -3 15 16 23 23 11 26 17 21 43
-6 30 -5 30 10 11 8 -10 14 -24 12 -29z m-114 27 c-7 -2 -13 -13 -13 -24 0
-10 -4 -19 -10 -19 -11 0 -14 33 -3 43 3 4 13 7 22 6 10 0 12 -2 4 -6z"/>
<path d="M1976 3224 c-4 -9 -4 -19 -1 -22 2 -3 7 3 11 12 4 9 4 19 1 22 -2 3
-7 -3 -11 -12z"/>
<path d="M3910 3104 c0 -8 5 -12 10 -9 6 3 10 10 10 16 0 5 -4 9 -10 9 -5 0
-10 -7 -10 -16z"/>
<path d="M5545 3065 c-16 -7 -25 -14 -20 -14 6 -1 3 -5 -5 -11 -8 -5 -12 -12
-8 -15 3 -4 21 7 40 24 37 34 36 36 -7 16z"/>
<path d="M5465 3030 c-3 -5 3 -10 15 -10 12 0 18 5 15 10 -3 6 -10 10 -15 10
-5 0 -12 -4 -15 -10z"/>
<path d="M3470 2971 c0 -5 5 -13 10 -16 6 -3 10 -2 10 4 0 5 -4 13 -10 16 -5
3 -10 2 -10 -4z"/>
<path d="M2095 2920 c-3 -5 -1 -10 4 -10 6 0 11 5 11 10 0 6 -2 10 -4 10 -3 0
-8 -4 -11 -10z"/>
<path d="M2838 2919 c-14 -8 -18 -24 -18 -75 0 -72 -18 -126 -56 -165 -24 -25
-25 -29 -13 -68 7 -22 18 -41 25 -41 26 0 88 66 112 120 32 70 36 172 9 213
-19 29 -32 32 -59 16z m43 -195 c-11 -15 -21 -32 -21 -39 0 -7 -6 -18 -14 -24
-22 -18 -41 11 -24 38 7 12 16 21 20 21 5 0 8 7 8 15 0 18 32 37 44 25 5 -5
-1 -20 -13 -36z"/>
<path d="M2050 2901 c0 -5 -9 -13 -21 -16 -11 -4 -18 -9 -16 -12 6 -5 67 25
67 32 0 3 -7 5 -15 5 -8 0 -15 -4 -15 -9z"/>
<path d="M3480 2860 c0 -5 5 -10 11 -10 5 0 7 5 4 10 -3 6 -8 10 -11 10 -2 0
-4 -4 -4 -10z"/>
<path d="M2045 2850 c-17 -7 -17 -9 -2 -9 22 -1 22 -13 -3 -34 -11 -9 -20 -23
-20 -30 0 -8 -9 -22 -20 -32 -11 -10 -20 -24 -20 -31 0 -7 -7 -20 -16 -28 -35
-35 -91 -5 -74 39 6 16 6 25 -1 25 -5 0 -13 -8 -16 -17 -11 -27 -35 -51 -67
-62 -21 -9 -26 -16 -21 -29 4 -9 14 -36 22 -58 11 -33 18 -41 33 -37 11 3 17
10 13 16 -4 6 4 8 21 3 33 -8 66 1 66 18 0 22 35 46 68 46 38 0 42 20 10 44
l-23 17 27 -6 c15 -3 30 -1 33 5 9 14 52 12 78 -4 12 -7 34 -16 49 -20 l28 -6
-21 52 c-12 29 -24 60 -27 68 -7 21 -33 50 -44 50 -5 0 -7 -4 -4 -9 4 -5 -3
-7 -14 -4 -11 3 -20 14 -20 24 0 21 -5 22 -35 9z"/>
<path d="M5210 2830 c0 -5 11 -9 25 -8 14 1 25 6 25 10 0 4 -11 8 -25 8 -14 0
-25 -4 -25 -10z"/>
<path d="M1767 2713 c-2 -4 -1 -17 3 -27 6 -19 7 -19 14 -1 7 19 -8 44 -17 28z"/>
<path d="M2193 2618 c-22 -29 -24 -38 -8 -38 11 0 15 5 11 15 -7 19 8 19 24 0
18 -22 5 -45 -27 -46 -27 0 -28 -1 -5 -11 32 -16 27 -33 -13 -52 -43 -21 -51
-17 -59 29 -7 37 -22 43 -57 24 -14 -7 -30 -7 -49 -1 -19 7 -31 7 -39 -1 -8
-8 -11 -8 -11 1 0 7 -7 12 -15 12 -9 0 -12 -6 -8 -17 5 -12 2 -15 -10 -10 -20
7 -21 3 -6 -25 10 -19 9 -20 -12 -15 -13 4 -30 7 -36 7 -7 0 -13 6 -13 14 0
16 -18 31 -26 23 -9 -9 16 -47 30 -47 7 0 21 -9 31 -20 18 -20 18 -21 -3 -27
-26 -6 -26 -3 -7 -51 9 -21 22 -39 29 -39 11 0 12 4 3 19 -10 16 -8 22 13 38
13 10 28 16 32 13 15 -9 2 -116 -16 -128 -20 -15 -21 -29 -1 -21 9 3 15 0 15
-9 0 -8 9 -15 20 -15 18 0 19 3 8 20 -10 16 -10 22 1 32 10 9 12 9 7 1 -4 -7
2 -17 13 -22 26 -14 44 -14 35 1 -5 8 2 9 24 5 18 -4 32 -2 32 3 0 5 7 7 15 4
8 -4 22 -1 30 6 11 9 22 9 46 1 17 -6 36 -8 41 -5 6 4 4 -4 -3 -17 -11 -21
-11 -23 3 -11 13 10 17 10 22 -5 6 -14 9 -15 16 -4 4 8 6 20 3 28 -3 7 0 13 7
13 7 0 10 -8 7 -20 -3 -11 0 -20 6 -20 7 0 6 -4 -2 -9 -12 -8 -12 -13 3 -35 9
-15 14 -31 11 -37 -4 -6 3 -8 19 -5 15 3 24 1 21 -5 -4 -5 -1 -9 4 -9 6 0 11
4 11 9 0 5 6 11 14 14 9 4 13 0 12 -11 -2 -9 4 -22 12 -28 13 -9 11 -12 -12
-16 -20 -4 -26 -2 -22 8 6 15 -12 18 -38 8 -19 -7 -21 -30 -3 -37 6 -2 9 -7 6
-11 -10 -10 -59 15 -52 27 3 5 0 8 -7 5 -7 -2 -25 7 -39 20 -14 14 -38 29 -53
34 -16 6 -28 14 -28 20 0 5 4 7 9 3 17 -10 23 15 7 31 -15 14 -16 14 -16 -4 0
-22 -25 -47 -39 -38 -5 3 -11 -1 -15 -9 -3 -8 -13 -15 -22 -15 -11 0 -14 -5
-10 -16 3 -9 6 -20 6 -25 0 -4 8 -6 18 -2 14 5 15 3 5 -7 -10 -11 -15 -11 -27
0 -9 7 -13 16 -10 21 3 5 -2 9 -10 9 -9 0 -16 -5 -16 -11 0 -5 -4 -7 -10 -4
-5 3 -10 18 -10 32 0 15 3 23 6 20 4 -3 16 -2 28 4 20 9 20 9 3 -4 -10 -9 -14
-18 -9 -21 13 -8 25 23 23 57 -2 15 2 27 8 27 6 0 11 5 11 10 0 6 -7 10 -15
10 -8 0 -15 -8 -15 -19 0 -15 -6 -18 -33 -15 -45 5 -64 -23 -43 -69 8 -18 20
-49 26 -69 9 -30 17 -38 35 -38 12 0 33 -11 46 -24 19 -20 27 -22 38 -13 12
10 13 8 9 -11 l-6 -23 33 21 c40 25 45 25 45 0 0 -16 -7 -20 -30 -20 -17 0
-29 -3 -28 -7 5 -24 -15 -59 -34 -60 -27 -2 -39 -15 -30 -31 10 -15 62 6 62
26 0 14 10 15 30 2 13 -8 12 -10 -2 -10 -10 0 -18 -4 -18 -9 0 -5 -9 -13 -20
-16 -11 -4 -18 -11 -15 -16 3 -5 -1 -6 -9 -3 -9 3 -16 4 -16 1 0 -14 75 -196
92 -225 18 -30 82 -72 108 -72 19 0 96 38 110 55 7 8 18 15 26 15 7 0 18 9 24
20 8 15 21 20 51 20 48 0 63 -23 30 -46 -34 -24 -24 -34 17 -17 51 22 558 218
661 256 46 17 79 33 73 35 -19 6 -14 25 13 51 14 13 25 32 25 43 0 13 5 18 14
15 11 -4 13 -1 9 10 -5 11 -3 14 6 9 15 -10 45 29 47 59 1 11 5 36 9 56 8 44
-12 64 -64 62 -20 -1 -166 -52 -326 -113 -159 -61 -311 -114 -336 -117 -28 -3
-67 1 -101 11 -31 9 -67 16 -81 16 -14 0 -28 4 -31 9 -7 11 -76 20 -76 9 0 -4
5 -8 12 -8 6 0 9 -2 6 -5 -8 -9 -38 6 -32 16 8 13 -30 11 -43 -2 -14 -14 -43
-5 -43 13 0 9 3 9 12 0 8 -8 19 -5 42 15 17 14 43 31 57 37 23 10 25 14 16 36
-6 14 -20 52 -32 85 -53 143 -65 166 -94 191 -30 25 -41 54 -21 54 12 0 14 33
3 44 -5 4 -8 11 -8 14 -3 29 -44 122 -55 122 -4 0 -12 -6 -17 -12z m52 -88 c3
-5 -1 -10 -10 -10 -9 0 -13 5 -10 10 3 6 8 10 10 10 2 0 7 -4 10 -10z m-265
-30 c0 -5 -2 -10 -4 -10 -3 0 -8 5 -11 10 -3 6 -1 10 4 10 6 0 11 -4 11 -10z
m130 -60 c8 -5 11 -10 5 -10 -5 0 -17 5 -25 10 -8 5 -10 10 -5 10 6 0 17 -5
25 -10z m-36 -36 c4 -9 4 -19 1 -22 -3 -3 -5 0 -5 7 0 7 -5 9 -10 6 -8 -5 -8
-11 -1 -19 6 -7 8 -16 4 -19 -8 -9 -34 43 -27 54 9 15 31 10 38 -7z m73 -9
c-7 -15 -20 -24 -32 -24 -17 1 -17 2 -2 6 9 2 17 11 17 18 0 7 6 16 13 18 6 3
13 6 14 6 0 1 -4 -10 -10 -24z m124 -7 c18 -16 19 -19 6 -15 -10 4 -23 7 -28
7 -5 0 -9 7 -9 15 0 20 2 19 31 -7z m-261 -8 c-8 -5 -17 -7 -19 -4 -3 3 1 9 9
14 8 5 17 7 19 4 3 -3 -1 -9 -9 -14z m201 -13 c-10 -9 -11 -8 -5 6 3 10 9 15
12 12 3 -3 0 -11 -7 -18z m36 -13 c-3 -3 -12 -4 -19 -1 -8 3 -5 6 6 6 11 1 17
-2 13 -5z m-217 -19 c0 -8 -4 -15 -10 -15 -5 0 -7 7 -4 15 4 8 8 15 10 15 2 0
4 -7 4 -15z m253 -19 c4 -10 1 -13 -8 -9 -8 3 -12 9 -9 14 7 12 11 11 17 -5z
m47 -15 c0 -5 -8 -15 -17 -22 -16 -12 -17 -12 -6 2 7 9 10 19 6 22 -3 4 -1 7
5 7 7 0 12 -4 12 -9z m-160 -161 c-12 -22 -21 -26 -17 -7 2 10 17 26 25 27 1
0 -2 -9 -8 -20z m37 -21 c-9 -6 -15 -14 -12 -20 3 -5 -1 -6 -11 -2 -14 5 -13
8 7 24 13 10 26 15 29 13 3 -3 -3 -10 -13 -15z m-94 -34 c4 -8 2 -17 -3 -20
-6 -4 -10 3 -10 14 0 25 6 27 13 6z m-33 -15 c12 -8 11 -10 -5 -9 -11 1 -31 5
-45 9 -24 8 -24 8 5 9 17 0 37 -4 45 -9z m170 -1 c0 -4 -7 -9 -15 -13 -9 -3
-15 0 -15 8 0 7 7 13 15 13 8 0 15 -4 15 -8z m-95 -9 c-3 -5 -12 -10 -18 -10
-7 0 -6 4 3 10 19 12 23 12 15 0z m160 0 c13 -6 15 -9 5 -9 -8 0 -22 4 -30 9
-18 12 -2 12 25 0z m982 -40 c-1 -23 -22 -27 -30 -6 -6 16 1 26 19 26 7 0 12
-9 11 -20z m-917 -34 c0 -3 -4 -8 -10 -11 -5 -3 -10 -1 -10 4 0 6 5 11 10 11
6 0 10 -2 10 -4z m-140 -182 c0 -18 -34 -18 -49 -1 -15 18 -6 25 24 19 14 -2
25 -11 25 -18z m303 2 c17 -26 13 -36 -15 -36 -16 0 -23 11 -19 33 0 4 -2 6
-6 6 -19 -3 -33 2 -33 11 0 21 58 10 73 -14z m-373 4 c0 -5 -2 -10 -4 -10 -3
0 -8 5 -11 10 -3 6 -1 10 4 10 6 0 11 -4 11 -10z m826 -3 c8 -7 -57 -37 -81
-37 -9 0 -15 9 -15 21 0 17 3 19 13 10 10 -8 19 -7 32 3 19 14 39 15 51 3z"/>
<path d="M5033 2595 c-3 -9 -3 -18 -1 -21 9 -9 38 8 38 22 0 19 -29 18 -37 -1z"/>
<path d="M1925 2300 c-3 -5 -1 -10 4 -10 6 0 11 5 11 10 0 6 -2 10 -4 10 -3 0
-8 -4 -11 -10z"/>
<path d="M3750 2085 c-14 -16 -3 -20 19 -6 8 5 9 11 3 15 -5 3 -15 -1 -22 -9z"/>
<path d="M2400 2069 c0 -5 5 -7 10 -4 6 3 10 8 10 11 0 2 -4 4 -10 4 -5 0 -10
-5 -10 -11z"/>
<path d="M2430 1580 c0 -5 5 -10 10 -10 6 0 10 5 10 10 0 6 -4 10 -10 10 -5 0
-10 -4 -10 -10z"/>
</g>
</svg>
